<svg width="92" height="18" viewBox="0 0 92 18" fill="none" xmlns="http://www.w3.org/2000/svg">
<g clip-path="url(#clip0_2170_11314)">
<path d="M33.4305 7.46216C33.4305 5.92806 32.3787 4.43262 30.1171 4.43262H24.2668V13.5341H26.2393V6.07062H29.8288C30.9336 6.07062 31.459 6.60405 31.459 7.46216C31.459 8.33313 30.9326 8.86656 29.8288 8.86656H28.3019C27.61 8.86656 27.2213 9.251 27.2213 9.93527V10.5055H28.3167C28.8291 10.5055 29.2104 10.6748 29.5266 11.0775L31.472 13.535H33.8908L31.1828 10.1284C32.6288 9.80193 33.4305 8.86566 33.4305 7.46216Z" fill="white"/>
<path d="M40.518 4.42676H38.5457V13.5283H40.518V4.42676Z" fill="white"/>
<path d="M55.7187 4.42676H53.6153L50.276 11.4746L46.9363 4.42676H44.833L49.2241 13.5292H51.3275L55.7187 4.42676Z" fill="white"/>
<path d="M62.0422 4.42676H60.0698V13.5283H62.0422V4.42676Z" fill="white"/>
<path d="M72.9802 4.42676H70.8767L66.3545 13.5283H68.458L69.0235 12.3584C69.2597 11.8645 69.6282 11.6429 70.1806 11.6429H73.599L73.1913 10.7848C72.9415 10.2513 72.5338 10.0048 71.9296 10.0048H70.1815L71.9296 6.41611L75.3999 13.5283H77.5038L72.9802 4.42676Z" fill="white"/>
<path d="M91.5 4.42676H89.5936V11.1885L84.0849 4.42676H81.824V13.5292H83.7304V6.76742L89.2382 13.5292H91.5V4.42676Z" fill="white"/>
<path d="M19.19 8.28481C18.1308 7.20414 12.4006 1.35842 11.3265 0.515043C10.9517 0.217973 10.4691 0 9.86372 0C9.25739 0 8.77477 0.217973 8.40094 0.515043C7.32683 1.35842 1.59565 7.20414 0.536458 8.28481C0.449974 8.38323 0.528089 8.53771 0.65828 8.53771C1.18741 8.53771 2.414 8.53956 3.1533 8.53956C3.41368 8.53956 3.49086 8.49451 3.65453 8.32068C3.8182 8.14684 4.63282 7.2823 4.63282 7.2823C5.66876 6.17773 8.19542 3.73864 9.11884 2.96977C9.46569 2.68097 9.85813 2.69017 9.86372 2.69017C9.86927 2.69017 10.2617 2.68097 10.6086 2.96977C11.532 3.73957 14.0586 6.17863 15.0946 7.2823C15.0946 7.2823 15.9092 8.14684 16.0729 8.32068C16.2365 8.49451 16.3138 8.53956 16.5741 8.53956C17.3125 8.53956 18.54 8.53771 19.0691 8.53771C19.1993 8.53866 19.2765 8.38323 19.19 8.28481Z" fill="white"/>
<path d="M0.536505 9.67662C1.5957 10.7573 7.32595 16.603 8.40003 17.4464C8.77481 17.7435 9.25743 17.9614 9.86281 17.9614C10.4691 17.9614 10.9518 17.7435 11.3256 17.4464C12.3997 16.603 18.1299 10.7573 19.1892 9.67662C19.2756 9.5782 19.1975 9.42372 19.0673 9.42372C18.5382 9.42372 17.3116 9.42188 16.5723 9.42188C16.3119 9.42188 16.2348 9.46692 16.0711 9.64076C15.9074 9.81459 15.0928 10.6791 15.0928 10.6791C14.0568 11.7837 11.5302 14.2228 10.6068 14.9917C10.2599 15.2805 9.86749 15.2712 9.8619 15.2712C9.8563 15.2712 9.46386 15.2805 9.11702 14.9917C8.19359 14.2218 5.66698 11.7828 4.63101 10.6791C4.63101 10.6791 3.81639 9.81459 3.65272 9.64076C3.48905 9.46692 3.41186 9.42188 3.15148 9.42188C2.41312 9.42188 1.1856 9.42372 0.656466 9.42372C0.528135 9.42372 0.450021 9.5782 0.536505 9.67662Z" fill="white"/>
<path d="M9.17107 10.9132C8.69869 10.4864 7.86641 9.68807 7.55673 9.33032C7.41537 9.17215 7.42465 8.97437 7.42465 8.97437C7.42465 8.97437 7.41537 8.77664 7.55673 8.61847C7.86641 8.26067 8.69869 7.46237 9.17107 7.03564C9.36449 6.85721 9.411 6.74498 9.411 6.5261C9.411 5.84921 9.411 4.57999 9.411 4.09898C9.411 4.00149 9.2957 3.94079 9.20643 4.02264C8.15283 4.98742 5.80567 7.28764 5.01893 8.17882C4.6423 8.57338 4.67764 8.97532 4.67764 8.97532C4.67764 8.97532 4.64323 9.37631 5.01893 9.77177C5.80658 10.663 8.15374 12.9632 9.20643 13.928C9.30034 14.0089 9.411 13.9583 9.411 13.8434C9.411 13.3614 9.411 12.1005 9.411 11.4236C9.411 11.2029 9.36449 11.0907 9.17107 10.9132Z" fill="white"/>
<path d="M10.5558 10.9154C11.0283 10.4886 11.8606 9.69035 12.1702 9.33255C12.3115 9.17438 12.3023 8.97665 12.3023 8.97665C12.3023 8.97665 12.3115 8.77887 12.1702 8.6207C11.8606 8.26295 11.0283 7.4646 10.5558 7.03787C10.3624 6.85944 10.3159 6.74726 10.3159 6.52833C10.3159 5.85144 10.3159 4.5905 10.3159 4.10858C10.3159 3.99361 10.4266 3.94302 10.5205 4.02396C11.5741 4.98875 13.9213 7.28897 14.708 8.18015C15.0837 8.57471 15.0493 8.97665 15.0493 8.97665C15.0493 8.97665 15.0837 9.37764 14.708 9.7731C13.9203 10.6643 11.5732 12.9645 10.5205 13.9293C10.4266 14.0103 10.3159 13.9596 10.3159 13.8447C10.3159 13.3628 10.3159 12.1018 10.3159 11.4249C10.3169 11.2051 10.3624 11.0938 10.5558 10.9154Z" fill="white"/>
</g>
<defs>
<clipPath id="clip0_2170_11314">
<rect width="91" height="18" fill="white" transform="translate(0.5)"/>
</clipPath>
</defs>
</svg>
