<svg width="311" height="58" viewBox="0 0 311 58" fill="none" xmlns="http://www.w3.org/2000/svg">
<path d="M26.6996 0C29.3444 0 31.7877 0.201507 34.0294 0.806026C36.2712 1.20904 38.1099 2.04025 39.7472 3.04779C41.3844 4.05532 42.5934 5.49105 43.4246 7.3298C44.2307 9.16855 44.6589 11.4103 44.6589 13.8536C44.6589 16.6999 44.0544 19.1431 42.6186 20.9819C41.3844 22.8206 39.3693 24.4579 36.9009 25.6669C40.3769 26.6744 43.0216 28.5132 44.6337 30.9564C46.2457 33.3997 47.2785 36.4475 47.2785 39.9235C47.2785 42.7698 46.6739 45.213 45.6412 47.2533C44.6337 49.2935 42.9964 51.1323 41.1577 52.3413C39.319 53.5755 37.0772 54.5831 34.6339 55.1876C32.1907 55.7921 29.7474 56.1951 27.3041 56.1951L0 56.2455V0H26.6996ZM25.0624 22.8206C27.3041 22.8206 29.1429 22.2161 30.5534 21.1834C31.964 20.1507 32.5937 18.3371 32.5937 16.0953C32.5937 14.8611 32.3922 13.6521 31.9892 12.846C31.5861 12.04 30.9816 11.4103 30.1504 10.8058C29.3444 10.4028 28.5132 9.99976 27.5056 9.79825C26.4981 9.59675 25.4654 9.59675 24.2563 9.59675H12.443V22.8458C12.443 22.8206 25.0624 22.8206 25.0624 22.8206ZM25.6669 46.8755C26.9011 46.8755 28.1102 46.6739 29.1429 46.4724C30.1504 46.2709 31.1831 45.8679 31.9892 45.2382C32.7952 44.6085 33.4249 44.004 34.0294 42.9965C34.4324 41.9889 34.8354 40.7547 34.8354 39.319C34.8354 36.4727 34.0294 34.4324 32.3922 32.9967C30.7549 31.7625 28.5132 31.1579 25.8684 31.1579H12.443V46.8503H25.6669V46.8755ZM65.011 46.6739C66.6483 48.3112 69.0915 49.1172 72.3408 49.1172C74.5826 49.1172 76.6228 48.5127 78.2601 47.48C79.8973 46.2457 80.9049 45.0367 81.3079 43.8025H91.2824C89.6452 48.689 87.2019 52.165 83.9526 54.4068C80.7033 56.447 76.8243 57.6561 72.1393 57.6561C68.89 57.6561 66.0186 57.0515 63.3738 56.0188C60.729 55.0113 58.6888 53.5755 56.85 51.5353C55.0113 49.6965 53.6007 47.4548 52.7695 44.81C51.762 42.1652 51.3338 39.319 51.3338 36.0445C51.3338 32.9967 51.7368 30.1252 52.7695 27.4805C53.8022 24.8357 55.2128 22.5939 57.0515 20.5537C58.8903 18.7149 61.132 17.0777 63.5753 16.0701C66.2201 15.0626 68.8648 14.4329 72.1393 14.4329C75.6153 14.4329 78.6631 15.0374 81.3079 16.4732C83.9526 17.9089 85.9929 19.5209 87.6301 21.9642C89.2674 24.206 90.4764 26.8507 91.3076 29.697C91.7106 32.5433 91.9122 35.4148 91.7106 38.6641H62.1648C62.1648 41.9889 63.3738 45.0367 65.011 46.6739ZM77.8571 25.2639C76.4213 23.8281 74.1796 23.0221 71.5348 23.0221C69.6961 23.0221 68.2855 23.4251 67.0513 24.0297C65.8171 24.6342 65.011 25.4654 64.205 26.2714C63.399 27.0774 62.9708 28.1102 62.7693 29.1177C62.5678 30.1252 62.3663 30.9564 62.3663 31.7625H80.7033C80.3003 28.7399 79.2676 26.6996 77.8571 25.2639ZM59.923 3.879H82.7436V9.37005H59.923V3.879ZM107.604 0V21.1834H107.806C109.242 18.7401 111.055 17.1029 113.297 16.0953C115.539 15.0878 117.579 14.4581 119.821 14.4581C122.869 14.4581 125.312 14.8611 127.151 15.6923C128.989 16.4983 130.627 17.7326 131.634 19.1683C132.642 20.604 133.473 22.4176 133.876 24.4579C134.279 26.4981 134.48 28.7399 134.48 31.3846V56.447H123.272V33.4249C123.272 29.9489 122.667 27.5056 121.634 25.8936C120.602 24.2815 118.813 23.4251 116.168 23.4251C113.121 23.4251 110.879 24.4327 109.645 26.0699C108.209 27.9087 107.604 30.9564 107.604 35.0369V56.447H96.3957V0H107.604ZM142.667 21.6116C143.901 19.7728 145.311 18.5638 147.15 17.3296C148.989 16.322 151.029 15.4908 153.271 15.0878C155.513 14.6848 157.754 14.4833 159.996 14.4833C162.036 14.4833 164.077 14.6848 166.318 14.8863C168.359 15.0878 170.399 15.6923 172.036 16.5235C173.875 17.3296 175.084 18.5638 176.318 19.9995C177.326 21.4353 177.955 23.4755 177.955 25.9188V47.3288C177.955 49.1676 178.157 51.0063 178.358 52.6184C178.56 54.2556 179.164 55.6662 179.794 56.4974H168.384C167.981 56.0944 167.779 55.2632 167.578 54.6586C167.376 54.0541 167.376 53.2229 167.376 52.6184C165.538 54.4571 163.497 55.6662 161.054 56.4974C158.611 57.3034 156.168 57.5049 153.724 57.5049C151.684 57.5049 150.047 57.3034 148.233 56.6989C146.596 56.2959 145.185 55.4647 143.75 54.4571C142.515 53.4496 141.508 52.2154 140.702 50.5781C140.097 48.9409 139.694 47.3288 139.694 45.0871C139.694 42.8453 140.097 40.8051 140.929 39.3693C141.735 37.9336 142.767 36.7246 143.976 35.6918C145.211 34.8858 146.823 34.0546 148.46 33.6516C150.097 33.2486 151.709 32.8456 153.548 32.6441C155.185 32.4426 156.797 32.241 158.434 32.0395C160.072 31.838 161.482 31.6365 162.716 31.435C163.951 31.032 164.958 30.629 165.764 29.9993C166.57 29.3948 166.772 28.5635 166.772 27.3545C166.772 26.1203 166.57 25.1128 166.167 24.5082C165.764 23.9037 165.16 23.274 164.53 22.871C163.926 22.468 163.094 22.2665 162.288 22.065C161.482 21.8635 160.45 21.8635 159.442 21.8635C157.2 21.8635 155.563 22.2665 154.354 23.2992C153.12 24.3067 152.314 25.944 152.112 27.9842H140.903C140.828 25.4654 141.634 23.2236 142.667 21.6116ZM164.883 37.5054C164.278 37.7069 163.447 37.9084 162.641 38.1099C161.835 38.3114 161.004 38.3114 159.996 38.5129C159.19 38.7144 158.157 38.7144 157.351 38.9159C156.545 39.1175 155.714 39.319 154.908 39.5205C154.102 39.722 153.271 40.125 152.868 40.528C152.263 40.931 151.86 41.5355 151.432 42.1652C150.828 42.9713 150.828 43.8025 150.828 44.81C150.828 45.8175 151.029 46.6488 151.432 47.2533C151.835 47.8578 152.238 48.4875 152.868 48.8905C153.472 49.2935 154.304 49.495 155.11 49.6965C155.916 49.8981 156.747 49.8981 157.754 49.8981C159.996 49.8981 161.633 49.495 162.842 48.8905C164.077 48.0845 164.883 47.2533 165.487 46.2457C166.092 45.2382 166.495 44.2055 166.495 43.198C166.696 42.1904 166.696 41.3592 166.696 40.7547V36.4727C166.092 36.8757 165.487 37.3039 164.883 37.5054ZM194.832 15.4908V21.2086H195.033C196.469 18.7653 198.282 17.1281 200.524 16.1205C202.766 15.113 205.209 14.4833 207.451 14.4833C210.499 14.4833 212.942 14.8863 214.781 15.7175C216.821 16.5235 218.257 17.7578 219.264 19.1935C220.272 20.6292 221.103 22.4428 221.708 24.483C222.111 26.5233 222.312 28.7651 222.312 31.4098V56.4722H211.103V33.4501C211.103 29.9741 210.499 27.5308 209.466 25.9188C208.458 24.2815 206.62 23.274 203.748 23.274C200.7 23.274 198.459 24.5082 197.023 26.3218C195.587 28.1605 194.983 31.2083 194.983 35.2888V56.6989H183.774V15.4908H194.832ZM247.425 22.8206C245.586 22.8206 244.175 23.2236 242.941 24.0548C241.707 24.8609 240.7 25.8936 239.893 27.3041C239.087 28.5384 238.659 29.9489 238.256 31.5861C237.853 33.2234 237.853 34.6339 237.853 36.2712C237.853 37.7069 238.055 39.319 238.256 40.7547C238.659 42.3919 239.062 43.601 239.893 44.8352C240.7 46.0694 241.531 47.077 242.74 47.883C243.974 48.689 245.385 49.1172 247.223 49.1172C249.868 49.1172 251.908 48.3112 253.546 46.8755C254.981 45.4397 255.989 43.3995 256.19 40.7547H266.996C266.19 46.2457 264.15 50.3263 260.674 53.1977C257.198 56.044 252.714 57.4797 247.223 57.4797C244.175 57.4797 241.304 56.8752 238.861 55.8425C236.216 54.835 234.176 53.3992 232.337 51.5605C230.498 49.7217 229.088 47.48 228.055 45.0367C227.047 42.3919 226.619 39.7472 226.619 36.6742C226.619 33.4249 227.022 30.5534 228.055 27.9087C229.063 25.2639 230.297 22.8206 232.135 20.7804C233.974 18.7401 236.216 17.3044 238.659 16.0953C241.304 15.0878 244.15 14.4581 247.425 14.4581C249.868 14.4581 252.11 14.8611 254.352 15.4656C256.593 16.0701 258.634 17.1029 260.271 18.3119C262.11 19.5461 263.52 21.1582 264.553 23.1984C265.56 25.0372 266.19 27.4805 266.392 30.1252H255.384C254.956 25.2639 252.311 22.8206 247.425 22.8206ZM283.897 46.6739C285.535 48.3112 288.179 49.1172 291.227 49.1172C293.469 49.1172 295.509 48.5127 297.147 47.48C298.784 46.2457 299.791 45.0367 300.194 43.8025H309.967C308.33 48.689 305.887 52.165 302.638 54.4068C299.388 56.447 295.509 57.6561 290.824 57.6561C287.575 57.6561 284.704 57.0515 282.059 56.0188C279.414 55.0113 277.374 53.5755 275.535 51.5353C273.696 49.6965 272.286 47.4548 271.454 44.81C270.447 42.1652 270.019 39.319 270.019 36.0445C270.019 32.9967 270.422 30.1252 271.454 27.4805C272.462 24.8357 273.898 22.5939 275.736 20.5537C277.575 18.7149 279.817 17.0777 282.26 16.0701C284.905 15.0626 287.751 14.4329 290.824 14.4329C294.3 14.4329 297.348 15.0374 299.791 16.4732C302.436 17.9089 304.476 19.5209 306.114 21.9642C307.751 24.206 308.96 26.8507 309.791 29.697C310.597 32.5433 310.799 35.6163 310.597 38.8656H281.051C281.051 41.9889 282.26 45.0367 283.897 46.6739ZM296.945 25.2639C295.509 23.8281 293.268 23.0221 290.623 23.0221C288.784 23.0221 287.373 23.4251 286.139 24.0297C284.905 24.6342 283.897 25.4654 283.293 26.2714C282.688 27.0774 282.059 28.1102 281.857 29.1177C281.656 30.1252 281.454 30.9564 281.454 31.7625H299.791C299.187 28.7399 298.154 26.6996 296.945 25.2639Z" fill="black"/>
</svg>
