<svg width="79" height="24" viewBox="0 0 79 24" fill="none" xmlns="http://www.w3.org/2000/svg">
<path d="M67.351 3.50703C67.6534 3.50703 67.9358 3.57183 68.1734 3.72304C68.715 4.00385 69.0606 4.58861 69.0606 5.23818V10.1091H73.7803C74.7323 10.1091 75.4899 10.8667 75.4899 11.8187C75.4899 12.7707 74.7323 13.5282 73.7803 13.5282H69.0606V18.1616C69.0606 19.1136 68.303 19.8711 67.351 19.8711C67.1566 19.8711 54.2101 19.8711 54.2101 19.8711C53.2581 19.8711 52.5005 19.1136 52.5005 18.1616V11.7323C52.5437 10.8235 53.3013 10.0875 54.2101 10.0875H65.64V6.92612H52.4558L46.1993 18.5519C46.0913 19.0719 45.7657 19.5255 45.2689 19.7647C45.0313 19.8727 44.7706 19.9375 44.533 19.9375C43.9482 19.9375 43.3634 19.6351 43.061 19.0935C42.9962 19.0071 42.953 18.8991 42.9098 18.7911L37.9741 9.09236L32.9735 18.5751C32.7575 19.0734 32.4319 19.5271 31.9336 19.7878C31.696 19.8958 31.4352 19.9606 31.1976 19.9606C30.6128 19.9606 30.0281 19.6582 29.7257 19.1166C29.6609 19.0302 29.6177 18.9222 29.5745 18.8142L23.534 6.9724H13.4449V10.1338H21.6069C22.5589 10.1338 23.3164 10.8914 23.3164 11.8434C23.3164 12.7953 22.5589 13.5529 21.6069 13.5529H13.4449V18.2727C13.4449 19.2246 12.6873 19.9822 11.7354 19.9822C10.7834 19.9822 10.0258 19.2246 10.0258 18.2727V13.5529H5.21966C4.26768 13.5529 3.51012 12.7953 3.51012 11.8434C3.51012 10.8914 4.26768 10.1338 5.21966 10.1338H9.93942V5.26286C9.93942 4.6133 10.3082 4.05014 10.8266 3.74773C11.0642 3.61812 11.3465 3.53172 11.649 3.53172H24.4428C24.7236 3.53172 24.9843 3.59652 25.2219 3.72613C25.5907 3.87733 25.8931 4.15968 26.0659 4.5485L31.1313 14.4848L36.1966 5.00211C36.4558 4.48215 36.587 4.00694 37.1486 3.74618C37.3862 3.63818 37.647 3.57338 37.8846 3.57338C38.3181 3.57338 38.7285 3.72458 39.0325 4.02853C39.3349 4.26614 39.4877 4.44049 39.7037 4.8509L44.4882 14.4848L49.8575 4.5269C49.9871 4.28929 50.1816 4.09334 50.4207 3.94213C50.7231 3.70452 51.0919 3.55178 51.5254 3.55178H67.351M55.8564 16.432H65.6415V13.5313H55.8564V16.432ZM67.351 0H51.5254C50.3775 0 49.2527 0.390357 48.3424 1.08312C47.7144 1.51668 47.1945 2.0999 46.8273 2.74946L46.8057 2.79267L46.7841 2.83587L44.5978 6.90606C44.5978 6.90606 42.0643 1.92709 41.3067 1.32073C40.3548 0.498361 39.142 0.0432036 37.8861 0.0432036C37.1069 0.0432036 36.3278 0.216009 35.6134 0.563163C34.2495 1.21273 33.4919 2.42545 32.8639 3.83259L31.2192 6.90606L29.2057 2.96547C28.6858 1.90395 27.7986 1.03838 26.7155 0.541562C26.0011 0.194408 25.2219 0.021603 24.4428 0.021603H11.649C10.7834 0.021603 9.91782 0.237609 9.1587 0.649566C7.47076 1.55834 6.43084 3.33423 6.43084 5.23972V6.60365H5.21812C2.33905 6.60365 0 8.94115 0 11.8218C0 14.7024 2.33751 17.0399 5.21812 17.0399H6.43084V18.2526C6.43084 21.1317 8.76835 23.4707 11.649 23.4707C14.5296 23.4707 16.8671 21.1332 16.8671 18.2526V17.0399H21.5004C22.4956 17.0399 23.4491 16.7591 24.2499 16.2607L26.3066 20.2877C26.4146 20.5253 26.5226 20.7429 26.6537 20.9589C27.6057 22.5172 29.2952 23.4707 31.1127 23.4707C31.8919 23.4707 32.6711 23.2979 33.3855 22.9508C34.663 22.3444 35.7662 21.306 36.3293 19.9853L37.8229 16.6727L39.6851 20.3093C39.7931 20.5469 39.9012 20.7645 40.0308 20.9805C40.9827 22.5388 42.6722 23.4923 44.4898 23.4923C45.2689 23.4923 46.0481 23.3195 46.7625 22.9724C47.9536 22.3876 48.884 21.3708 49.3607 20.1581C50.1399 22.0636 52.0238 23.4059 54.2101 23.4059H67.351C70.2301 23.4059 72.5692 21.1548 72.5692 18.2758V17.063H73.7819C76.6609 17.063 79 14.7255 79 11.8449C79 8.96584 76.6625 6.62679 73.7819 6.62679H72.5692V5.26286C72.5692 3.33577 71.5308 1.58302 69.8413 0.672708C69.0837 0.216007 68.2166 0 67.351 0Z" fill="black"/>
</svg>
