<?xml version="1.0" encoding="UTF-8"?>
<svg id="Layer_1" xmlns="http://www.w3.org/2000/svg" version="1.1" viewBox="0 0 967.56 184.88">
  <!-- Generator: Adobe Illustrator 29.0.1, SVG Export Plug-In . SVG Version: 2.1.0 Build 192)  -->
  <defs>
    <style>
      .st0 {
        fill-rule: evenodd;
      }
    </style>
  </defs>
  <path class="st0" d="M50,73.54h-26.8v37.92h26.8v-37.92ZM84.38,73.54h-15.61v37.92h.38l-.03.07h19.99l-5.03,18.89H5.78c-.74,0-1.34-.6-1.34-1.35V55.94c0-.75.6-1.35,1.34-1.35h86.21l-7.61,18.96ZM141.02,73.54h-19.99l5.05-18.96h32.48c.74,0,1.34.6,1.34,1.35v73.13c0,.75-.6,1.35-1.34,1.35h-40.38l7.62-18.96h15.34v-37.92h-.11Z"/>
  <path class="st0" d="M107.22,84.19h18.55l-22.32,53.81h-11.04l10.22-37.19h-18.56l22.33-53.81h11.03l-10.21,37.19Z"/>
  <path class="st0" d="M963.73,130.41h-59.42V54.58h56.2v14.7h-37.11v13.85h34.65v14.7h-34.65v17.89h40.32v14.69h.01ZM806.6,130.41V54.58h28l13.52,56.33h.21l13.95-56.33h27.67v75.82h-18.04v-58.89h-.21l-15.13,58.9h-16.84l-15.55-58.9h-.21v58.9h-17.38ZM722.5,130.41l28.2-75.82h19.74l28.85,75.82h-20.48l-3.86-11.93h-28.2l-3.86,11.93h-20.39ZM751.25,104.43h19.09l-9.44-31.31h-.21l-9.44,31.31ZM671.23,68.64v20.45h17.49c6.11,0,10.19-3.09,10.19-10.23s-4.08-10.23-10.19-10.23h-17.49ZM652.14,130.41V54.58h38.19c17.17,0,27.68,7.88,27.68,24.92,0,9.79-6.22,17.57-15.76,20.45l17.48,30.46h-21.34l-15.03-27.26h-12.11v27.26h-19.1ZM584.56,130.41V54.58h58.35v14.7h-39.25v15.98h36.36v14.7h-36.36v30.46h-19.1Z"/>
  <path class="st0" d="M556.92,100.56c9.51-2.88,15.7-10.68,15.7-20.52,0-17.1-10.47-25-27.57-25h-38.04v76.08h19.03v-27.36h12.07l14.96,27.35h21.26l-17.41-30.55ZM543.45,89.66h-17.42v-20.52h17.42c6.09,0,10.15,3.1,10.15,10.26s-4.07,10.26-10.15,10.26Z"/>
  <path class="st0" d="M400.26,55.04h-37.73v76.08h19.23v-24.58h14.86c26.07,0,31.73-15.6,31.73-25.75,0-14.96-7.58-25.75-28.09-25.75ZM397.59,92.44h-16.03v-23.3h15.49c8.65,0,12.29,4.06,12.29,11.75,0,5.98-3.2,11.54-11.75,11.54Z"/>
  <path class="st0" d="M496.96,131.12h-59.19V55.04h55.99v14.74h-36.98v13.89h34.51v14.75h-34.51v17.95h40.17v14.75Z"/>
  <path class="st0" d="M307.08,131.12v-35.48l-28.85-40.6h22.23l16.14,26.28,16.14-26.28h22.23l-28.85,40.6v35.48h-19.02Z"/>
  <path class="st0" d="M204.29,131.12V55.04h19.02v27.35h28.31v-27.35h19.03v76.08h-19.03v-32.06h-28.31v32.06h-19.02Z"/>
  <metadata>
    <sfw xmlns="http://ns.adobe.com/SaveForWeb/1.0/">
      <slices/>
      <sliceSourceBounds x="-157.15" y="46.88" width="959.29" height="91" bottomLeftOrigin="true"/>
    </sfw>
  </metadata>
</svg>