<svg xmlns="http://www.w3.org/2000/svg" width="404" height="39" viewBox="0 0 404 39" fill="none">
<path fill-rule="evenodd" clip-rule="evenodd" d="M19.1901 11.1765H7.90415V27.1469H19.1901V11.1765ZM33.6657 11.1765H27.0902V27.1469H27.2503L27.2383 27.1752H35.6587L33.5416 35.1301H0.564296C0.252132 35.1301 0 34.8753 0 34.5599V3.76359C0 3.44814 0.252132 3.19336 0.564296 3.19336H36.8714L33.6657 11.1765ZM57.5222 11.1765H49.1018L51.2269 3.19336H64.9061C65.2182 3.19336 65.4704 3.44814 65.4704 3.76359V34.5599C65.4704 34.8753 65.2182 35.1301 64.9061 35.1301H47.9011L51.1108 27.1469H57.5702V11.1765H57.5222Z" fill="white"/>
<path fill-rule="evenodd" clip-rule="evenodd" d="M43.2866 15.6631H51.0984L41.698 38.3241H37.0471L41.3491 22.661H33.5332L42.9377 0H47.5846L43.2866 15.6631Z" fill="white"/>
<path fill-rule="evenodd" clip-rule="evenodd" d="M404 35.1261H378.974V3.19336H402.644V9.38419H387.013V15.2151H401.606V21.406H387.013V28.9393H403.996V35.1261H404ZM337.824 35.1261V3.19336H349.614L355.308 26.9175H355.397L361.27 3.19336H372.926V35.1261H365.331V10.3264H365.241L358.871 35.1301H351.781L345.232 10.3264H345.143V35.1301H337.824V35.1261ZM302.408 35.1261L314.288 3.19336H322.601L334.753 35.1261H326.127L324.502 30.1039H312.623L310.998 35.1261H302.408ZM314.516 24.184H322.556L318.581 10.9976H318.491L314.516 24.184ZM280.815 9.11326V17.7262H288.179C290.753 17.7262 292.471 16.4242 292.471 13.4198C292.471 10.4153 290.753 9.11326 288.179 9.11326H280.815ZM272.776 35.1261V3.19336H288.859C296.088 3.19336 300.515 6.5132 300.515 13.6866C300.515 17.8112 297.896 21.0865 293.876 22.2996L301.24 35.1261H292.251L285.922 23.6461H280.819V35.1261H272.776ZM244.316 35.1261V3.19336H268.891V9.38419H252.36V16.1128H267.673V22.3037H252.36V35.1301H244.316V35.1261Z" fill="white"/>
<path fill-rule="evenodd" clip-rule="evenodd" d="M232.672 22.5578C236.676 21.3447 239.285 18.0582 239.285 13.9156C239.285 6.71377 234.875 3.38672 227.673 3.38672H211.65V35.4278H219.664V23.9049H224.748L231.049 35.4238H240.003L232.672 22.5578ZM226.999 17.9649H219.664V9.32266H226.999C229.564 9.32266 231.276 10.6291 231.276 13.6438C231.276 16.6584 229.564 17.9649 226.999 17.9649Z" fill="white"/>
<path fill-rule="evenodd" clip-rule="evenodd" d="M166.699 3.38672H150.811V35.4278H158.909V25.0775H165.166C176.145 25.0775 178.531 18.5086 178.531 14.2321C178.535 7.93098 175.337 3.38672 166.699 3.38672ZM165.571 19.1375H158.82V9.32672H165.344C168.988 9.32672 170.521 11.0349 170.521 14.2767C170.521 16.7964 169.174 19.1375 165.571 19.1375Z" fill="white"/>
<path fill-rule="evenodd" clip-rule="evenodd" d="M207.423 35.4278H182.494V3.38672H206.076V9.59451H190.503V15.4452H205.037V21.6571H190.503V29.216H207.423V35.4278Z" fill="white"/>
<path fill-rule="evenodd" clip-rule="evenodd" d="M127.455 35.4278V20.4845L115.303 3.38672H124.663L131.459 14.4552L138.255 3.38672H147.616L135.464 20.4845V35.4278H127.455Z" fill="white"/>
<path fill-rule="evenodd" clip-rule="evenodd" d="M84.1641 35.4278V3.38672H92.1733V14.9056H104.098V3.38672H112.111V35.4278H104.098V21.9249H92.1733V35.4278H84.1641Z" fill="white"/>
</svg>