<svg width="79" height="14" viewBox="0 0 79 14" fill="none" xmlns="http://www.w3.org/2000/svg">
<path d="M27.9286 9.72253C27.9286 10.3496 27.4095 10.858 26.7691 10.858H23.3009H19.8329C19.1925 10.858 18.6733 10.3496 18.6733 9.72253V4.63105C18.6733 4.00249 19.1937 3.49294 19.8356 3.49294H23.3009H26.7664C27.4083 3.49294 27.9286 4.00249 27.9286 4.63105V9.72253ZM29.4108 0.723633L15.7855 0.730215C15.0919 0.730215 14.4537 1.12108 14.1219 1.74914L10.4929 8.61931C10.2974 8.98936 9.78221 8.98936 9.58678 8.61931L5.95766 1.74914C5.6259 1.12108 4.98777 0.730215 4.29411 0.730215H1.39097C1.12383 0.730215 0.907281 0.953491 0.907281 1.22899L0.90807 12.8907C0.891506 13.1882 1.12108 13.4389 1.41011 13.4389H3.64432C4.04988 13.4389 4.37922 13.1009 4.38105 12.6827L4.40374 7.53263C4.4048 7.28615 4.7191 7.1965 4.843 7.40722L8.10054 12.9485C8.27933 13.2529 8.59938 13.4389 8.94451 13.4389H11.1351C11.4802 13.4389 11.8003 13.2529 11.9791 12.9485L15.1407 7.37653C15.222 7.23332 15.395 7.22434 15.4986 7.31366V11.4324C15.4986 12.5105 16.391 13.3843 17.4918 13.3843H29.4154C30.5162 13.3843 31.4086 12.5105 31.4086 11.4324V2.67994C31.4086 1.5995 30.5142 0.723633 29.4108 0.723633Z" fill="white"/>
<path d="M64.7607 9.80268C64.7607 10.4353 64.2367 10.9482 63.5907 10.9482H60.0916H56.593C55.9465 10.9482 55.4231 10.4353 55.4231 9.80268V4.6658C55.4231 4.03162 55.948 3.51758 56.5954 3.51758H60.0916H63.5879C64.2358 3.51758 64.7607 4.03162 64.7607 4.6658V9.80268ZM78.6341 0.769105H77.1911C76.1862 0.769105 75.3709 1.6093 75.3709 2.64573V7.39492C75.3709 7.70644 75.0066 7.86356 74.7915 7.64473L68.8575 1.6068C68.3133 1.05325 67.5781 0.745716 66.8139 0.752134L54.2358 0.723633C53.1224 0.723633 52.2197 1.60728 52.2197 2.6974V11.5278C52.2197 12.6154 53.1204 13.497 54.231 13.497L67.3465 13.5212C67.9563 13.5212 68.4503 13.0116 68.4503 12.3829V6.54136C68.4503 6.42367 68.5878 6.36393 68.6698 6.44606L75.4374 13.2499C75.6102 13.4238 75.8422 13.5212 76.0839 13.5212H77.9495C78.5299 13.5212 79.0002 13.0361 79.0002 12.4375V1.14653C79.0002 0.938045 78.8362 0.769105 78.6341 0.769105Z" fill="white"/>
<path d="M50.2528 6.4195H47.7738C47.5014 6.4195 47.2808 6.64707 47.2808 6.92781V11.0762C47.2808 11.3166 47 11.4383 46.8335 11.2701L37.3353 1.67806C36.8477 1.18582 36.1927 0.910156 35.5104 0.910156H32.9319C32.4792 0.910156 32.2553 1.4767 32.5784 1.80327C32.7236 1.9498 32.8616 2.08937 32.9704 2.19903C33.8102 3.04726 36.2928 5.55504 37.4402 6.71347C37.7044 6.98021 37.7042 7.41628 37.4399 7.68303L32.6076 12.5656C32.2622 12.9144 32.5018 13.5195 32.9851 13.5195C32.9851 13.5195 35.088 13.5189 36.0581 13.5187C36.3656 13.5186 36.6608 13.3943 36.8805 13.1724L39.9751 10.0472C40.188 9.8321 40.5288 9.8321 40.7417 10.0472L43.6526 12.9875L43.8267 13.1632C44.0527 13.3916 44.3566 13.5195 44.6731 13.5195H47.7188C47.7269 13.5195 47.7344 13.518 47.7422 13.5176C47.7536 13.5185 47.7654 13.5195 47.7771 13.5195H50.2547C50.5301 13.5195 50.753 13.2893 50.753 13.0053V6.93563C50.753 6.65054 50.5292 6.4195 50.2528 6.4195Z" fill="white"/>
<path d="M50.2546 0.910156H44.3436C44.2191 0.910156 44.0995 0.960471 44.0105 1.05027L42.3281 2.75046C42.1393 2.94126 42.1393 3.25472 42.3284 3.44526L43.9609 5.09049C44.2173 5.349 44.627 5.34881 44.8831 5.09006L46.8752 3.07844C47.0264 2.92592 47.281 3.03623 47.281 3.25428V4.32597C47.281 4.62534 47.5163 4.86804 47.8067 4.86804H50.2411C50.5243 4.86804 50.7534 4.63161 50.7534 4.33996V1.42432C50.7534 1.14035 50.5301 0.910156 50.2546 0.910156Z" fill="white"/>
</svg>
