<svg width="245" height="42" viewBox="0 0 245 42" fill="none" xmlns="http://www.w3.org/2000/svg">
<g clip-path="url(#clip0_5007_9415)">
<path d="M85.1949 28.7567C85.1949 30.7127 83.5757 32.2985 81.5782 32.2985H70.7603H59.9429C57.9452 32.2985 56.3259 30.7127 56.3259 28.7567V12.8755C56.3259 10.9149 57.949 9.32549 59.9511 9.32549H70.7603H81.5698C83.5718 9.32549 85.1949 10.9149 85.1949 12.8755V28.7567ZM89.8183 0.6875L47.3183 0.70803C45.1547 0.70803 43.1643 1.9272 42.1293 3.88625L30.8096 25.3156C30.1999 26.4699 28.5929 26.4699 27.9833 25.3156L16.6634 3.88625C15.6286 1.9272 13.6381 0.70803 11.4745 0.70803H2.41903C1.58577 0.70803 0.910326 1.40447 0.910326 2.2638L0.912787 38.6389C0.86112 39.5668 1.57722 40.3488 2.47875 40.3488H9.44765C10.7127 40.3488 11.7399 39.2944 11.7457 37.9901L11.8164 21.926C11.8197 21.1572 12.8001 20.8776 13.1866 21.5349L23.3474 38.8192C23.9051 39.7687 24.9034 40.3488 25.98 40.3488H32.8128C33.8894 40.3488 34.8877 39.7687 35.4453 38.8192L45.3071 21.4391C45.5605 20.9924 46.1001 20.9644 46.4234 21.243V34.0903C46.4234 37.4529 49.207 40.1784 52.6406 40.1784H89.8326C93.2662 40.1784 96.0495 37.4529 96.0495 34.0903V6.7896C96.0495 3.4195 93.2599 0.6875 89.8183 0.6875Z" fill="white"/>
<path d="M200.086 29.0068C200.086 30.9801 198.452 32.5799 196.437 32.5799H185.523H174.61C172.593 32.5799 170.961 30.9801 170.961 29.0068V12.9839C170.961 11.0057 172.598 9.40235 174.617 9.40235H185.523H196.428C198.449 9.40235 200.086 11.0057 200.086 12.9839V29.0068ZM243.36 0.829335H238.859C235.725 0.829335 233.182 3.45005 233.182 6.68289V21.4965C233.182 22.4682 232.045 22.9583 231.374 22.2757L212.865 3.44225C211.168 1.71564 208.874 0.756382 206.491 0.776402L167.257 0.6875C163.784 0.6875 160.969 3.44377 160.969 6.84406V34.3877C160.969 37.7801 163.778 40.5301 167.242 40.5301L208.152 40.6054C210.054 40.6054 211.595 39.016 211.595 37.0549V18.8341C211.595 18.467 212.024 18.2806 212.28 18.5368L233.389 39.7592C233.928 40.3016 234.652 40.6054 235.406 40.6054H241.225C243.035 40.6054 244.502 39.0923 244.502 37.2253V2.00659C244.502 1.35629 243.991 0.829335 243.36 0.829335Z" fill="white"/>
<path d="M154.828 18.4562H147.096C146.246 18.4562 145.558 19.166 145.558 20.0417V32.9814C145.558 33.7311 144.682 34.1107 144.163 33.5861L114.536 3.66672C113.016 2.13132 110.973 1.27148 108.844 1.27148H100.801C99.3894 1.27148 98.6908 3.03863 99.6987 4.05727C100.152 4.51433 100.582 4.94967 100.921 5.29171C103.541 7.93752 111.285 15.7598 114.864 19.3731C115.688 20.2051 115.687 21.5653 114.863 22.3973L99.7896 37.6271C98.7123 38.715 99.4596 40.6023 100.967 40.6023C100.967 40.6023 107.527 40.6004 110.553 40.6C111.512 40.5995 112.432 40.2118 113.118 39.5196L122.771 29.7715C123.434 29.1007 124.498 29.1007 125.161 29.7715L134.241 38.943L134.784 39.4912C135.489 40.2034 136.437 40.6023 137.424 40.6023H146.924C146.95 40.6023 146.973 40.5976 146.997 40.5965C147.033 40.5992 147.07 40.6023 147.106 40.6023H154.834C155.694 40.6023 156.389 39.8843 156.389 38.9984V20.0661C156.389 19.1768 155.691 18.4562 154.828 18.4562Z" fill="white"/>
<path d="M154.834 1.27148H136.396C136.008 1.27148 135.635 1.42843 135.357 1.70853L130.109 7.01172C129.521 7.60688 129.521 8.58462 130.11 9.17893L135.203 14.3107C136.002 15.1171 137.28 15.1165 138.079 14.3094L144.293 8.03475C144.764 7.55903 145.559 7.9031 145.559 8.58325V11.926C145.559 12.8598 146.293 13.6169 147.198 13.6169H154.792C155.675 13.6169 156.39 12.8794 156.39 11.9697V2.87527C156.39 1.98949 155.693 1.27148 154.834 1.27148Z" fill="white"/>
</g>
<defs>
<clipPath id="clip0_5007_9415">
<rect width="244" height="41" fill="white" transform="translate(0.5 0.5)"/>
</clipPath>
</defs>
</svg>
