<?xml version="1.0" encoding="UTF-8"?>
<svg id="Layer_1" xmlns="http://www.w3.org/2000/svg" version="1.1" viewBox="0 0 644.39 184.88">
  <!-- Generator: Adobe Illustrator 29.0.1, SVG Export Plug-In . SVG Version: 2.1.0 Build 192)  -->
  <defs>
    <style>
      .st0 {
        fill: #121212;
      }
    </style>
  </defs>
  <path class="st0" d="M224.5,113.63c0,5.11-4.23,9.25-9.45,9.25h-56.52c-5.22,0-9.45-4.14-9.45-9.25v-41.49c0-5.12,4.24-9.27,9.47-9.27h56.48c5.23,0,9.47,4.15,9.47,9.27v41.49ZM236.58,40.29l-111.04.05c-5.65,0-10.85,3.19-13.56,8.3l-29.57,55.99c-1.59,3.02-5.79,3.02-7.38,0l-29.57-55.99c-2.7-5.12-7.9-8.3-13.56-8.3H8.24c-2.18,0-3.94,1.82-3.94,4.06v95.03c-.13,2.42,1.74,4.47,4.1,4.47h18.21c3.31,0,5.99-2.75,6-6.16l.18-41.97c0-2.01,2.57-2.74,3.58-1.02l26.55,45.16c1.46,2.48,4.07,4,6.88,4h17.85c2.81,0,5.42-1.51,6.88-4l25.77-45.41c.66-1.17,2.07-1.24,2.92-.51v33.57c0,8.79,7.27,15.91,16.24,15.91h97.17c8.97,0,16.24-7.12,16.24-15.91V56.24c0-8.8-7.29-15.94-16.28-15.94Z"/>
  <path class="st0" d="M524.67,114.28c0,5.16-4.27,9.34-9.53,9.34h-57.03c-5.27,0-9.53-4.18-9.53-9.34v-41.86c0-5.17,4.28-9.36,9.55-9.36h56.98c5.28,0,9.56,4.19,9.56,9.36v41.86ZM637.72,40.66h-11.76c-8.19,0-14.83,6.85-14.83,15.29v38.7c0,2.54-2.97,3.82-4.72,2.04l-48.36-49.2c-4.44-4.51-10.43-7.02-16.65-6.96l-102.5-.23c-9.07,0-16.43,7.2-16.43,16.08v71.96c0,8.86,7.34,16.05,16.39,16.05l106.88.2c4.97,0,9-4.15,9-9.28v-47.6c0-.96,1.12-1.45,1.79-.78l55.15,55.45c1.41,1.42,3.3,2.21,5.27,2.21h15.2c4.73,0,8.56-3.95,8.56-8.83V43.74c0-1.7-1.34-3.08-2.98-3.08Z"/>
  <path class="st0" d="M406.42,86.72h-20.2c-2.22,0-4.02,1.85-4.02,4.14v33.81c0,1.96-2.29,2.95-3.64,1.58l-77.4-78.17c-3.97-4.01-9.31-6.26-14.87-6.26h-21.01c-3.69,0-5.51,4.62-2.88,7.28,1.18,1.19,2.31,2.33,3.2,3.23,6.84,6.91,27.07,27.35,36.43,36.79,2.15,2.17,2.15,5.73,0,7.9l-39.38,39.79c-2.82,2.84-.86,7.77,3.08,7.77,0,0,17.14,0,25.04,0,2.51,0,4.91-1.01,6.7-2.82l25.22-25.47c1.74-1.75,4.51-1.75,6.25,0l23.72,23.96,1.42,1.43c1.84,1.86,4.32,2.9,6.9,2.9h24.82c.07,0,.13-.01.19-.01.09,0,.19.01.28.01h20.19c2.24,0,4.06-1.88,4.06-4.19v-49.46c0-2.32-1.82-4.21-4.08-4.21Z"/>
  <path class="st0" d="M406.44,41.82h-48.17c-1.01,0-1.99.41-2.71,1.14l-13.71,13.86c-1.54,1.55-1.54,4.11,0,5.66l13.3,13.41c2.09,2.11,5.43,2.1,7.51,0l16.23-16.39c1.23-1.24,3.31-.34,3.31,1.43v8.73c0,2.44,1.92,4.42,4.28,4.42h19.84c2.31,0,4.18-1.93,4.18-4.3v-23.76c0-2.31-1.82-4.19-4.07-4.19Z"/>
</svg>