<svg width="72" height="14" viewBox="0 0 72 14" fill="none" xmlns="http://www.w3.org/2000/svg">
<path d="M9.41284 13.8186V6.28876C9.41284 4.38834 7.92141 2.84685 6.08271 2.84685C4.244 2.84685 2.75257 4.38834 2.75257 6.28876V13.8186H0V6.28876C0 2.81473 2.72333 0 6.08453 0C9.44391 0 12.1691 2.81473 12.1691 6.28876V13.8186H9.41284Z" fill="black"/>
<path d="M21.5106 2.84685C23.7258 2.84685 25.5298 4.70948 25.5298 7.00094C25.5298 9.2924 23.7277 11.155 21.5106 11.155C19.2936 11.155 17.4914 9.2924 17.4914 7.00094C17.4914 4.70948 19.2936 2.84685 21.5106 2.84685ZM21.5106 0C17.7711 0 14.7389 3.13399 14.7389 6.99905C14.7389 10.8641 17.7711 13.9981 21.5106 13.9981C25.2502 13.9981 28.2824 10.8641 28.2824 6.99905C28.2824 3.13399 25.252 0 21.5106 0Z" fill="black"/>
<path d="M65.2282 2.84685C67.4435 2.84685 69.2474 4.70948 69.2474 7.00094C69.2474 9.2924 67.4453 11.155 65.2282 11.155C63.0112 11.155 61.209 9.2924 61.209 7.00094C61.209 4.70948 63.0112 2.84685 65.2282 2.84685ZM65.2282 0C61.4887 0 58.4565 3.13399 58.4565 6.99905C58.4565 10.8641 61.4887 13.9981 65.2282 13.9981C68.9678 13.9981 72 10.8641 72 6.99905C72 3.13399 68.9678 0 65.2282 0Z" fill="black"/>
<path d="M54.2161 0.183241L51.4471 10.3012L48.6415 0.183241H45.7775L49.104 12.1714C49.782 14.6139 53.1323 14.6083 53.8031 12.1619L57.0784 0.183241H54.2161Z" fill="black"/>
<path d="M37.6276 2.84685C39.8428 2.84685 41.6468 4.70948 41.6468 7.00094C41.6468 9.2924 39.8446 11.155 37.6276 11.155C35.4106 11.155 33.6084 9.2924 33.6084 7.00094C33.6084 4.70948 35.4106 2.84685 37.6276 2.84685ZM37.6276 0C33.8881 0 30.8558 3.13399 30.8558 6.99905C30.8558 10.8641 33.8881 13.9981 37.6276 13.9981C41.3671 13.9981 44.3994 10.8641 44.3994 6.99905C44.3994 3.13399 41.3671 0 37.6276 0Z" fill="black"/>
</svg>
