<svg width="62" height="20" viewBox="0 0 62 20" fill="none" xmlns="http://www.w3.org/2000/svg">
<path d="M12.2608 0.000976562H4.51074V1.71043H12.2608V0.000976562Z" fill="black"/>
<path d="M41.7231 12.2185C43.5792 11.6765 44.784 10.0337 44.784 8.04073C44.784 5.4557 42.8302 3.71289 39.924 3.71289H32.874V19.0146H34.5022V12.3936H40.0135L43.5222 19.0146H45.2806L41.6172 12.2435L41.7231 12.2185ZM39.924 10.8926H34.5022V5.1972H39.924C41.8533 5.1972 43.1559 6.33962 43.1559 8.04073C43.1559 9.75019 41.8533 10.8926 39.924 10.8926Z" fill="black"/>
<path d="M24.432 19.3065C28.421 19.3065 31.2052 16.4379 31.2052 12.3269V3.71289H29.5363V12.2018C29.5363 15.3705 27.436 17.5887 24.432 17.5887C21.941 17.5887 19.2626 15.9042 19.2626 12.2018V3.71289H17.5938V12.3185C17.5856 16.4379 20.4023 19.3065 24.432 19.3065Z" fill="black"/>
<path d="M52.8438 3.71289L46.0137 19.0146H47.7639L49.4491 15.0954H57.7853L59.4786 19.0146H61.2288L54.3906 3.71289H52.8438ZM53.6253 5.7142L57.1503 13.6111H50.0759L53.6253 5.7142Z" fill="black"/>
<path d="M8.38578 17.5861C5.03177 17.5861 2.30461 14.7926 2.30461 11.357C2.30461 7.92138 5.03177 5.12787 8.38578 5.12787C11.7398 5.12787 14.467 7.92138 14.467 11.357C14.467 14.8009 11.7398 17.5861 8.38578 17.5861ZM8.38578 3.42676C4.11186 3.42676 0.635742 6.98743 0.635742 11.3653C0.635742 15.7432 4.11186 19.3038 8.38578 19.3038C12.6597 19.3038 16.1358 15.7432 16.1358 11.3653C16.1358 6.98743 12.6597 3.42676 8.38578 3.42676Z" fill="black"/>
</svg>
