<svg width="57" height="19" viewBox="0 0 57 19" fill="none" xmlns="http://www.w3.org/2000/svg">
<path d="M11.0109 0.870117H3.73242V2.47556H11.0109V0.870117Z" fill="white"/>
<path d="M38.6808 12.3435C40.4239 11.8345 41.5555 10.2917 41.5555 8.41999C41.5555 5.99224 39.7205 4.35547 36.9911 4.35547H30.3701V18.7262H31.8992V12.508H37.0752L40.3704 18.7262H42.0218L38.5814 12.367L38.6808 12.3435ZM36.9911 11.0983H31.8992V5.74947H36.9911C38.8031 5.74947 40.0264 6.82237 40.0264 8.41999C40.0264 10.0254 38.8031 11.0983 36.9911 11.0983Z" fill="white"/>
<path d="M22.4418 19.0003C26.188 19.0003 28.8028 16.3063 28.8028 12.4453V4.35547H27.2355V12.3279C27.2355 15.3038 25.2629 17.387 22.4418 17.387C20.1022 17.387 17.5869 15.805 17.5869 12.3279V4.35547H16.0195V12.4375C16.0119 16.3063 18.6572 19.0003 22.4418 19.0003Z" fill="white"/>
<path d="M49.1245 4.35547L42.71 18.7262H44.3537L45.9364 15.0454H53.7653L55.3556 18.7262H56.9994L50.5772 4.35547H49.1245ZM49.8585 6.23502L53.169 13.6514H46.5251L49.8585 6.23502Z" fill="white"/>
<path d="M7.37225 17.3847C4.22231 17.3847 1.66107 14.7612 1.66107 11.5346C1.66107 8.30806 4.22231 5.68453 7.37225 5.68453C10.5222 5.68453 13.0834 8.30806 13.0834 11.5346C13.0834 14.769 10.5222 17.3847 7.37225 17.3847ZM7.37225 4.08691C3.35837 4.08691 0.09375 7.43094 0.09375 11.5424C0.09375 15.654 3.35837 18.998 7.37225 18.998C11.3861 18.998 14.6507 15.654 14.6507 11.5424C14.6507 7.43094 11.3861 4.08691 7.37225 4.08691Z" fill="white"/>
</svg>
