<svg width="92" height="22" viewBox="0 0 92 22" fill="none" xmlns="http://www.w3.org/2000/svg">
<path d="M15.6709 4.57269C14.9563 3.32408 13.9277 2.2942 12.6923 1.59016C11.42 0.858366 9.98165 0.482899 8.52227 0.501646C7.06289 0.482899 5.62449 0.858366 4.35222 1.59016C3.10725 2.29254 2.06799 3.32213 1.34171 4.57269C0.618587 5.84748 0.25067 7.30065 0.277922 8.77436C0.249263 10.2517 0.617209 11.7087 1.34171 12.9869C2.05921 14.2332 3.08705 15.2624 4.32031 15.9694C5.59258 16.7012 7.03097 17.0767 8.49035 17.058C9.94973 17.0767 11.3881 16.7012 12.6604 15.9694C13.9147 15.2597 14.9583 14.2165 15.6811 12.9501C16.4039 11.6836 16.7789 10.2409 16.7666 8.77436C16.7842 7.29757 16.4052 5.84419 15.6709 4.57269ZM13.0434 13.4114C10.0009 16.5246 5.71387 16.8729 3.15015 14.2496C0.58642 11.6263 0.958746 7.23955 4.00117 4.1264C7.0436 1.01325 11.2988 0.686693 13.8625 3.3209C16.4262 5.9551 16.0964 10.32 13.0434 13.4114Z" fill="#0E0E0E"/>
<path d="M29.9701 0.774414L24.1831 14.8707L18.3961 0.774414H16.8643L23.4385 16.7865H24.9065L31.4913 0.774414H29.9701Z" fill="#0E0E0E"/>
<path d="M39.5124 15.4694V0.774414H38.0869V16.7865H39.2677H39.5124H47.3844V15.4694H39.5124Z" fill="#0E0E0E"/>
<path d="M50.967 16.3291C50.0882 15.8248 49.3544 15.0928 48.8395 14.2065C48.3199 13.3113 48.0512 12.2869 48.0629 11.2458C48.0508 10.1943 48.3193 9.1593 48.8395 8.25236C49.3478 7.34679 50.082 6.59553 50.967 6.07533C51.8563 5.56119 52.8604 5.29102 53.8818 5.29102C54.9032 5.29102 55.9073 5.56119 56.7966 6.07533C57.68 6.5976 58.4137 7.34837 58.9241 8.25236C59.4443 9.1593 59.7128 10.1943 59.7007 11.2458C59.6963 12.2705 59.4205 13.2749 58.9029 14.1521C58.3863 15.0371 57.653 15.7687 56.7753 16.2747C55.886 16.7888 54.8819 17.059 53.8605 17.059C52.8391 17.059 51.835 16.7888 50.9458 16.2747L50.967 16.3291ZM56.1264 15.2406C56.7991 14.8238 57.3502 14.2299 57.7221 13.5208C58.119 12.8047 58.3211 11.9927 58.3071 11.1696C58.318 10.3468 58.1161 9.53568 57.7221 8.81839C57.3491 8.11068 56.7918 7.52248 56.1121 7.119C55.4324 6.71553 54.6567 6.51253 53.8712 6.53251C53.0837 6.52 52.3078 6.72696 51.6266 7.13119C50.9616 7.53659 50.4172 8.11992 50.0522 8.81839C49.666 9.5384 49.4681 10.3483 49.4777 11.1696C49.4657 11.9911 49.6637 12.8017 50.0522 13.5208C50.4125 14.2312 50.9573 14.8263 51.6266 15.2406C52.3143 15.6334 53.0889 15.8396 53.8765 15.8396C54.6641 15.8396 55.4386 15.6334 56.1264 15.2406Z" fill="#0E0E0E"/>
<path d="M64.1077 16.3299C63.222 15.8105 62.4876 15.0591 61.9801 14.1529C61.4605 13.2576 61.1918 12.2333 61.2035 11.1921C61.1914 10.1406 61.4599 9.10564 61.9801 8.19869C62.4967 7.30515 63.2319 6.56474 64.1133 6.05042C64.9947 5.53611 65.9918 5.26563 67.0065 5.26563C68.0211 5.26562 69.0182 5.53611 69.8996 6.05042C70.781 6.56474 71.5162 7.30515 72.0329 8.19869C72.553 9.10564 72.8215 10.1406 72.8094 11.1921C72.8243 12.2322 72.5593 13.2565 72.0435 14.1529C71.5269 15.0378 70.7936 15.7695 69.9159 16.2755C69.0338 16.794 68.036 17.0714 67.0188 17.0809C66.0015 17.0904 64.9989 16.8318 64.1077 16.3299ZM69.267 15.2414C69.9289 14.838 70.4755 14.2637 70.8521 13.576C71.249 12.8598 71.451 12.0479 71.4371 11.2248C71.448 10.402 71.2461 9.59087 70.8521 8.87357C70.4755 8.18583 69.9289 7.61149 69.267 7.20815C68.5792 6.8154 67.8047 6.60922 67.0171 6.60922C66.2295 6.60922 65.455 6.8154 64.7672 7.20815C64.112 7.59264 63.5686 8.14868 63.1928 8.81915C62.8066 9.53917 62.6087 10.3491 62.6183 11.1703C62.6063 11.9919 62.8043 12.8024 63.1928 13.5215C63.5531 14.232 64.0979 14.8271 64.7672 15.2414C65.455 15.6341 66.2295 15.8403 67.0171 15.8403C67.8047 15.8403 68.5792 15.6341 69.267 15.2414Z" fill="#0E0E0E"/>
<path d="M85.7939 8.18622C85.3193 7.30895 84.6254 6.57643 83.7833 6.06362C82.9336 5.53828 81.9571 5.26679 80.9643 5.27988C79.877 5.2522 78.8112 5.59276 77.9325 6.24866C77.1766 6.82227 76.6119 7.62052 76.3156 8.53454V5.55201H74.9858V21.2919H76.3262V13.803C76.6133 14.7248 77.1749 15.5317 77.9325 16.1106C78.8151 16.7479 79.8737 17.0798 80.9537 17.0576C81.9423 17.0683 82.9151 16.8034 83.7678 16.2914C84.6205 15.7794 85.3209 15.0396 85.7939 14.1513C86.2873 13.2351 86.5402 12.2038 86.5279 11.1579C86.537 10.1192 86.2842 9.09573 85.7939 8.18622ZM84.5705 13.5199C84.2102 14.2304 83.6655 14.8255 82.9962 15.2398C82.3084 15.6325 81.5339 15.8387 80.7462 15.8387C79.9586 15.8387 79.1841 15.6325 78.4963 15.2398C77.8118 14.8276 77.2494 14.2332 76.8687 13.5199C76.4718 12.8038 76.2697 11.9919 76.2837 11.1687C76.2728 10.346 76.4747 9.53485 76.8687 8.81756C77.2452 8.12982 77.7919 7.55547 78.4538 7.15213C79.1415 6.75938 79.9161 6.5532 80.7037 6.5532C81.4913 6.5532 82.2658 6.75938 82.9536 7.15213C83.6314 7.54532 84.1907 8.1214 84.5705 8.81756C84.9568 9.53757 85.1546 10.3475 85.145 11.1687C85.1571 11.9903 84.959 12.8008 84.5705 13.5199Z" fill="#0E0E0E"/>
<path d="M88.4766 3.62587C88.1913 3.45368 87.9534 3.21024 87.7851 2.91833C87.6156 2.62116 87.5274 2.28276 87.5298 1.93867C87.5288 1.5982 87.617 1.26367 87.7851 0.96989C87.9534 0.677982 88.1913 0.43454 88.4766 0.262355C88.7664 0.087348 89.0975 -0.00300845 89.434 0.00111141C89.7636 -0.00124899 90.0874 0.0891241 90.3701 0.262355C90.6578 0.43227 90.8966 0.676602 91.0628 0.970831C91.229 1.26506 91.3166 1.59884 91.3169 1.93867C91.3185 2.28034 91.2318 2.61637 91.0655 2.91268C90.8992 3.20898 90.6593 3.45503 90.3701 3.62587C90.0874 3.7991 89.7636 3.88947 89.434 3.88711C89.0975 3.89123 88.7664 3.80087 88.4766 3.62587ZM87.9979 2.78771C88.1461 3.04607 88.3544 3.26294 88.6043 3.41905C88.8556 3.57043 89.1423 3.64941 89.434 3.64764C89.7223 3.64908 90.0055 3.57005 90.2531 3.41905C90.503 3.26294 90.7113 3.04607 90.8595 2.78771C91.01 2.53159 91.0874 2.23747 91.0829 1.93867C91.0879 1.63979 91.0105 1.34551 90.8595 1.08963C90.7113 0.831271 90.503 0.614395 90.2531 0.458288C90.0055 0.30729 89.7223 0.228259 89.434 0.2297C89.1305 0.225188 88.8319 0.308177 88.5723 0.469173C88.3225 0.62528 88.1142 0.842156 87.966 1.10051C87.8169 1.35324 87.7395 1.64347 87.7426 1.93867C87.7477 2.24067 87.8362 2.53502 87.9979 2.78771ZM88.7319 0.926349H89.4872C89.5709 0.922651 89.6546 0.936157 89.7331 0.96607C89.8117 0.995982 89.8836 1.0417 89.9446 1.10051C90.0023 1.15598 90.0475 1.2237 90.0769 1.29892C90.1063 1.37414 90.1192 1.45503 90.1148 1.53592C90.1198 1.65454 90.0902 1.772 90.0297 1.87336C89.9637 1.97086 89.8712 2.04652 89.7638 2.09106L90.2744 2.96187H89.8489L89.3915 2.17814H89.1042V2.99453H88.7319V0.926349ZM89.4659 1.80805C89.5022 1.8095 89.5385 1.80362 89.5726 1.79073C89.6067 1.77783 89.638 1.75819 89.6647 1.73291C89.6913 1.70764 89.7129 1.67723 89.7281 1.64343C89.7433 1.60963 89.7518 1.57309 89.7531 1.53592C89.7496 1.4948 89.7372 1.45498 89.717 1.41925C89.6968 1.38352 89.6692 1.35275 89.6361 1.3291C89.6095 1.30268 89.5778 1.28225 89.5429 1.26913C89.5081 1.256 89.471 1.25048 89.434 1.2529H89.1042V1.80805H89.4659Z" fill="#0E0E0E"/>
</svg>
