<svg width="305" height="77" viewBox="0 0 305 77" fill="none" xmlns="http://www.w3.org/2000/svg">
<path d="M4.29917 76.1754H0L0.0317903 22.1095L49.1497 7.80569C49.9014 7.50649 50.4961 7.1194 51.0197 6.50042C52.3343 4.94456 53.4526 2.48549 54.6924 0.832394C54.8439 0.628562 55.2104 0.490181 55.3208 0.166667C56.4839 0.189108 60.2763 -0.54768 60.5475 0.909065L60.4558 53.2266C60.2763 53.5052 60.0238 53.6716 59.7228 53.8007C58.6232 54.2775 56.8168 54.7039 55.5863 55.0816C40.2147 59.8109 24.5777 63.9119 9.3557 69.0039L4.2973 76.1736L4.29917 76.1754ZM53.8229 19.8393L9.98777 32.8864C8.78909 33.496 7.40714 35.6521 6.66101 36.8396C6.51327 37.0752 5.68112 38.3562 5.79519 38.4927L49.5237 25.526C50.0697 25.238 50.6214 24.8846 51.0197 24.4077C51.5471 23.7775 53.2506 21.2306 53.6396 20.4938C53.7574 20.2712 53.8977 20.1441 53.821 19.8374L53.8229 19.8393ZM53.8229 37.7484C51.1581 38.3319 48.5849 39.323 45.9838 40.0897C33.7838 43.682 21.4323 47.1154 9.3557 51.0985C8.41508 52.1794 7.42958 53.5239 6.65914 54.7488C6.5114 54.9844 5.67925 56.2654 5.79332 56.4019L49.6265 43.3529C51.0365 42.6554 51.8612 40.8433 52.7065 39.5661C52.8355 39.3697 54.0828 37.9953 53.821 37.7484H53.8229Z" fill="black"/>
<path d="M305 31.4047H294.908V63.1165H284.069V31.4047H273.509L273.229 31.1242V23.0102H284.067V13.9631C284.067 10.5709 288.454 6.4082 291.822 6.4082H304.624V14.5222L304.344 14.8027H296.495C296.082 14.8027 294.908 15.8929 294.908 16.3885V23.0102H305V31.4047Z" fill="black"/>
<path d="M96.4336 6.40592L123.072 6.39844C130.92 6.84724 138.505 11.915 139.934 19.9748C142.135 32.3992 134.907 41.7437 122.326 42.4169C117.905 42.6525 112.529 41.9026 108.291 42.4C108.02 42.4318 107.811 42.4225 107.646 42.6899V63.1161H96.4336V6.40592ZM121.383 16.1076H107.648V32.7096H121.57C123.007 32.7096 126.348 30.9798 127.276 29.8223C131.427 24.6386 128.252 16.7639 121.383 16.1076Z" fill="black"/>
<path d="M213.534 27.3788C221.5 34.4306 221.82 49.862 214.728 57.6095C205.429 67.7693 184.438 66.5744 177.511 54.1014C174.4 48.4988 174.265 38.915 176.948 33.1422C183.015 20.0932 203.376 18.3878 213.534 27.3788ZM205.84 34.1258C199.847 28.0932 188.105 30.5541 186.192 39.1973C184.053 48.856 190.061 57.2767 200.393 55.0513C209.522 53.0841 211.75 40.0725 205.842 34.1277L205.84 34.1258Z" fill="black"/>
<path d="M265.306 28.4915C271.331 34.9562 272.042 47.7471 267.326 55.0813C259.124 67.8311 235.805 67.5581 228.222 54.2249C224.878 48.3437 224.826 37.9202 228.153 32.024C235.141 19.637 255.92 18.4252 265.306 28.4934V28.4915ZM256.149 33.7201C249.665 27.9885 237.744 31.031 236.65 40.1324C235.507 49.6265 240.766 57.2655 251.036 55.0514C260.347 53.0449 262.469 39.3077 256.149 33.7201Z" fill="black"/>
<path d="M172.124 22.8242V31.7779H165.863C163.296 31.7779 159.634 33.5637 158.381 35.8751C158.149 36.3014 157.36 38.4464 157.36 38.7736V63.1175H146.521V23.0112H157.175V27.488L158.832 27.4637C159.516 25.3151 161.717 23.6021 163.89 23.0916C164.131 23.0355 165.338 22.8242 165.491 22.8242H172.126H172.124Z" fill="black"/>
</svg>
