<svg width="224" height="94" viewBox="0 0 224 94" fill="none" xmlns="http://www.w3.org/2000/svg">
<path fill-rule="evenodd" clip-rule="evenodd" d="M174.608 36.2797C174.296 37.9711 173.804 39.9241 173.144 42.0766C172.48 44.229 171.63 46.4998 170.627 48.8017C169.537 51.1223 168.406 53.2935 167.272 55.2496C166.151 57.1871 165.029 58.8536 163.955 60.2024C162.905 61.5169 161.93 62.4888 161.064 63.093C160.41 63.5478 160.045 63.5976 159.921 63.5976C159.862 63.5976 159.815 63.5883 159.765 63.5659C159.656 63.5164 159.292 63.2731 159.133 62.1174C158.983 61.0583 159.065 59.666 159.366 57.9808C159.678 56.2458 160.167 54.274 160.83 52.1341C161.484 49.9941 162.335 47.7233 163.353 45.3902C164.363 43.0758 165.465 40.9172 166.637 38.9703C167.802 37.0266 168.935 35.3788 170.01 34.0705C171.054 32.7934 172.029 31.8371 172.907 31.2235C173.564 30.7687 173.926 30.7189 174.05 30.7189C174.113 30.7189 174.16 30.7282 174.203 30.7506C174.312 30.7978 174.676 31.0434 174.838 32.1991C174.984 33.2582 174.906 34.6287 174.608 36.2797ZM130.88 36.2797C130.569 37.9711 130.077 39.9241 129.416 42.0766C128.75 44.2414 127.899 46.5091 126.899 48.8017C125.806 51.1286 124.675 53.2997 123.544 55.2496C122.42 57.1902 121.302 58.8567 120.227 60.2024C119.177 61.5169 118.205 62.4887 117.333 63.093C116.679 63.5478 116.318 63.5976 116.193 63.5976C116.135 63.5976 116.087 63.5883 116.037 63.567C115.928 63.5175 115.564 63.2742 115.405 62.1185C115.256 61.0626 115.333 59.6733 115.639 57.9819C115.947 56.25 116.439 54.2845 117.103 52.1352C117.757 49.9921 118.607 47.7244 119.626 45.3913C120.638 43.0707 121.744 40.9121 122.906 38.9715C124.077 37.0246 125.211 35.3768 126.282 34.0716C127.329 32.7945 128.307 31.8351 129.179 31.2246C129.833 30.7698 130.198 30.72 130.322 30.72C130.385 30.72 130.432 30.7293 130.475 30.7506C130.585 30.7978 130.952 31.0434 131.111 32.1991C131.257 33.2582 131.179 34.6287 130.88 36.2797ZM83.502 35.8436C83.3089 37.563 82.9351 39.5254 82.3899 41.681C81.8416 43.8303 81.0941 46.0917 80.1627 48.4092C79.2344 50.7143 78.247 52.8823 77.2222 54.8509C76.2191 56.776 75.2068 58.4175 74.2069 59.732C73.2351 61.0092 72.3224 61.9623 71.4907 62.5635C70.8771 63.009 70.5344 63.0588 70.4191 63.0588C70.3661 63.0588 70.3191 63.0495 70.2696 63.0271C70.1578 62.9776 69.7713 62.7249 69.5718 61.5506C69.385 60.4759 69.3693 59.0898 69.5189 57.4264C69.6746 55.7381 70.0266 53.7975 70.5685 51.6607C71.1106 49.5207 71.8612 47.2561 72.7957 44.9324C73.7364 42.5962 74.727 40.4313 75.7393 38.4876C76.7362 36.5657 77.7516 34.9054 78.7577 33.5504C79.7233 32.2421 80.6391 31.2765 81.4677 30.6753C82.0813 30.2298 82.424 30.18 82.5423 30.18C82.5953 30.18 82.6424 30.1894 82.6856 30.2118C82.8039 30.2612 83.2057 30.5233 83.4519 31.7132C83.6699 32.7723 83.6881 34.1584 83.502 35.8436ZM179.305 21.5585C181.595 21.5585 183.563 22.2593 185.158 23.6455C186.697 24.9818 187.796 26.8913 188.423 29.3178C189.03 31.6696 189.155 34.5135 188.796 37.7749C188.438 40.9957 187.497 44.6713 185.993 48.6989C184.576 52.5054 182.95 55.8539 181.168 58.648C180.305 60.0062 179.417 61.2771 178.517 62.4514C178.402 62.6009 178.574 62.7972 178.738 62.7069C179.261 62.4234 179.782 62.115 180.296 61.7786C181.467 61.0217 182.591 60.2055 183.66 59.3427C186.641 56.9286 188.806 53.6642 189.858 49.9948C190.488 47.7863 191.185 45.5965 191.945 43.4378C193.191 39.8837 194.522 36.5663 195.901 33.5759C197.272 30.5949 198.412 28.3646 199.291 26.9411C200.287 25.3213 201.683 24.3121 203.449 23.9383C205.1 23.5895 206.679 23.6143 208.131 24.0066C209.617 24.4116 210.831 25.1467 211.738 26.1995C212.725 27.3489 212.94 28.6572 212.355 29.9841C212.18 30.442 211.722 31.4886 210.993 33.0991C210.261 34.7188 209.439 36.6096 208.483 38.8897C207.564 41.0795 206.62 43.45 205.679 45.9295C204.76 48.3654 204.041 50.6393 203.542 52.6889C203.057 54.6825 202.867 56.3396 202.976 57.6136C203.082 58.8316 203.546 58.8316 203.798 58.8316C204.153 58.8316 204.782 58.6633 205.76 57.866C206.701 57.0872 207.695 56.1496 208.719 55.0656C209.744 53.9785 210.729 52.8073 211.638 51.5862C212.47 50.4742 213.183 49.4899 213.763 48.6582C214.267 47.9324 215.071 47.5181 215.965 47.5181C216.909 47.5181 217.824 47.9916 218.301 48.7236C218.765 49.44 218.753 50.2935 218.26 51.0598C217.644 52.0223 216.566 53.6358 214.965 56.0001C213.379 58.3363 211.482 60.7441 209.327 63.1613C207.134 65.6128 204.739 67.7901 202.2 69.631C199.53 71.5716 196.833 72.5529 194.188 72.5529C191.796 72.5529 190.011 71.7243 188.88 70.0858C187.853 68.5907 187.329 66.5847 187.329 64.1239V63.7313C187.336 63.4385 186.993 63.2735 186.766 63.4573C186.264 63.8591 185.747 64.2578 185.221 64.6503C182.111 66.9647 178.523 68.9271 174.548 70.4877C171 71.8832 167.091 72.5903 162.93 72.5903L162.082 72.5809L161.232 72.5526C158.397 72.5464 156.295 71.6586 154.977 69.9049C154.744 69.5966 154.529 69.2788 154.339 68.9518C154.186 68.6901 153.79 68.7338 153.703 69.0259C153.276 70.4494 152.872 71.8231 152.498 73.1376C151.688 75.9629 150.996 78.4081 150.389 80.6135C149.778 82.8251 149.249 84.8405 148.813 86.6129C148.392 88.3198 148.099 89.7029 147.95 90.7277L147.94 90.7657C147.557 92.7063 146.246 93.3884 145.209 93.6221C144.748 93.7245 144.268 93.7778 143.782 93.7778C142.904 93.7778 141.975 93.6065 141.025 93.2732C139.58 92.7623 138.281 91.8809 137.16 90.6505C135.998 89.3733 135.409 87.7754 135.409 85.9002C135.409 85.5201 135.506 84.6885 136.25 81.6265C136.808 79.3682 137.558 76.5585 138.49 73.2722C139.119 71.045 139.835 68.6216 140.63 66.03C140.723 65.7185 140.368 65.46 140.1 65.6437C137.331 67.5283 134.225 69.1574 130.836 70.4875C127.285 71.8829 123.379 72.5901 119.218 72.5901C118.657 72.5901 118.084 72.5771 117.517 72.5523C114.685 72.5461 112.583 71.6583 111.262 69.9046C111.029 69.5963 110.817 69.2816 110.627 68.9515C110.471 68.6898 110.078 68.7365 109.991 69.0257C109.561 70.4523 109.156 71.8291 108.783 73.1374C107.97 75.972 107.278 78.4203 106.677 80.6132C106.066 82.8248 105.534 84.8402 105.098 86.6126C104.677 88.3227 104.388 89.7057 104.235 90.7274L104.229 90.7654C103.846 92.706 102.531 93.3881 101.494 93.6218C101.033 93.7242 100.556 93.7774 100.07 93.7774C99.1918 93.7774 98.2635 93.6061 97.3103 93.2729C95.865 92.7621 94.5692 91.8805 93.4478 90.6501C92.2859 89.373 91.6972 87.775 91.6972 85.8998C91.6972 85.5167 91.7903 84.685 92.5383 81.6261C93.0991 79.346 93.8497 76.5363 94.7748 73.2719C95.3231 71.3313 95.9305 69.2629 96.6126 67.0295C96.7127 66.6931 96.3011 66.4377 96.0395 66.6775C94.8776 67.7366 93.6815 68.724 92.4542 69.6274C89.8221 71.568 87.1432 72.5523 84.4955 72.5523C82.1033 72.5523 80.3153 71.7237 79.1877 70.0853C78.7331 69.4245 78.378 68.6614 78.1195 67.8047C77.8921 67.0416 76.914 66.8079 76.3595 67.3842C75.5808 68.1941 74.7242 68.9323 73.8053 69.5833C72.6092 70.4306 71.2728 71.1408 69.8275 71.6953C68.3386 72.2621 66.7282 72.5519 65.0399 72.5519C62.7566 72.5519 60.7537 71.8573 59.0903 70.4836C57.4705 69.1566 56.2713 67.2752 55.5206 64.886C54.7917 62.5716 54.5238 59.7277 54.7232 56.429C54.9225 53.1707 55.6639 49.5138 56.9286 45.5547C59.623 37.3437 63.1367 31.2478 67.3761 27.4258C71.6934 23.5321 76.073 21.5572 80.3934 21.5572C82.2219 21.5572 83.77 21.9248 84.988 22.6474C86.1872 23.3638 87.1123 24.3108 87.7384 25.4633C88.1558 26.2389 88.4611 27.0706 88.648 27.9553C88.6817 28.111 88.8941 28.1421 88.972 28.0024C89.1901 27.6099 89.3988 27.258 89.595 26.9371C90.5918 25.3235 91.9686 24.3143 93.6912 23.9374C95.3016 23.5885 96.8777 23.6103 98.3698 24.0033C99.8992 24.4083 101.136 25.1465 102.045 26.1993C103.033 27.3487 103.248 28.657 102.659 29.984C102.488 30.4356 102.045 31.4573 101.301 33.0989C100.575 34.7062 99.7279 36.653 98.7903 38.8895C97.8619 41.1043 96.9182 43.4747 95.9868 45.9293C95.0648 48.3652 94.3452 50.6422 93.85 52.6887C93.3641 54.6854 93.1741 56.3425 93.2831 57.6134C93.3891 58.8314 93.8532 58.8314 94.1025 58.8314C94.4608 58.8314 95.0899 58.6631 96.0649 57.8658C96.6037 57.4203 97.1645 56.9189 97.7376 56.3675C99.9585 54.2275 101.447 51.8913 102.441 48.9851C103.762 45.1288 105.151 41.3223 106.578 37.653C108.101 33.7499 109.587 30.2456 110.995 27.2366C111.73 25.6791 112.895 24.6294 114.446 24.1248C115.901 23.6513 117.393 23.5517 118.86 23.8289C120.324 24.1092 121.607 24.6918 122.673 25.5639C123.146 25.9502 123.523 26.3676 123.803 26.8068C123.878 26.9251 123.965 26.9376 124.068 26.841C125.327 25.6791 126.716 24.6138 128.214 23.6637C130.407 22.2651 132.89 21.558 135.593 21.558C137.88 21.558 139.851 22.2589 141.443 23.645C142.985 24.9845 144.085 26.8908 144.711 29.3174C145.318 31.666 145.443 34.5131 145.085 37.7744C144.726 40.9921 143.782 44.6709 142.281 48.6985C140.861 52.5081 139.235 55.8566 137.453 58.6476C136.59 60.0057 135.702 61.2766 134.802 62.4509C134.687 62.6005 134.861 62.7967 135.026 62.7064C135.547 62.4229 136.067 62.1146 136.584 61.7781C137.422 61.2361 138.235 60.663 139.02 60.0649C142.004 57.7972 144.231 54.6947 145.418 51.1624L145.885 49.7825C147.287 45.6396 148.77 41.5591 150.29 37.6529C151.816 33.7437 153.302 30.2394 154.71 27.2366C155.442 25.6791 156.604 24.6325 158.161 24.1247C159.616 23.6512 161.108 23.5516 162.575 23.8289C164.039 24.1092 165.319 24.6917 166.385 25.5608C166.858 25.9501 167.235 26.3676 167.515 26.8068C167.59 26.9251 167.677 26.9376 167.78 26.841C169.038 25.6791 170.428 24.6138 171.926 23.6637C174.122 22.265 176.605 21.5585 179.305 21.5585ZM36.0367 2.15554C39.3198 2.15554 42.6092 2.53558 45.8176 3.27998C49.0478 4.03381 51.979 5.18008 54.5238 6.68772C57.0999 8.21404 59.215 10.1297 60.8098 12.3818C62.4358 14.6744 63.2581 17.3626 63.2581 20.3716C63.2581 23.6112 62.5355 26.6513 61.1088 29.405C59.6947 32.1305 57.7478 34.6194 55.3275 36.8029C52.929 38.9709 50.0851 40.8835 46.8736 42.4846C44.2259 43.8053 41.4131 44.9329 38.4913 45.8394C38.3043 45.8982 38.239 45.9951 38.2483 46.182C38.3107 47.6148 38.4133 49.0321 38.5598 50.3965C38.7249 51.9633 38.9429 53.4896 39.2108 54.9381C39.4724 56.3616 39.7902 57.7477 40.1484 59.0591C40.4288 60.0745 40.7403 61.062 41.0736 61.9996C41.2854 62.5977 41.5096 63.1833 41.7371 63.7315C42.195 64.8374 42.6997 65.8964 43.2354 66.8776C43.7618 67.8432 44.3318 68.759 44.9299 69.6001C45.5124 70.4194 46.1385 71.1887 46.7895 71.8926C47.425 72.578 48.0978 73.2072 48.7893 73.7679C49.4622 74.3129 50.1724 74.8082 50.8981 75.2319C51.6052 75.6492 52.3466 76.0106 53.1035 76.3097C53.848 76.6025 54.6174 76.8392 55.393 77.0105C56.1718 77.1818 56.9723 77.2909 57.7821 77.3438C58.589 77.3933 59.4299 77.3839 60.2679 77.3097C61.1214 77.2355 61.9935 77.0979 62.8595 76.8954C63.7473 76.6898 64.6506 76.4188 65.5508 76.0855C66.4729 75.7429 67.4042 75.3254 68.3231 74.8551C68.6751 74.6744 69.0302 74.4813 69.3822 74.282C70.5285 73.6279 71.9925 73.9394 72.7619 74.9984C73.5345 76.0575 73.3631 77.5215 72.3663 78.3812C71.8773 78.8017 71.3852 79.2128 70.8992 79.6054C69.7186 80.5585 68.535 81.4432 67.3793 82.2313C66.2829 82.9788 65.1677 83.6766 64.065 84.2965C63.5137 84.608 62.9343 84.9133 62.3456 85.206C61.2149 85.7729 60.0717 86.2714 58.9409 86.6887C57.8165 87.103 56.6857 87.4488 55.5831 87.7104C54.4835 87.9721 53.3746 88.162 52.2937 88.2711C51.5211 88.3488 50.7487 88.3894 49.9948 88.3894C49.6896 88.3894 49.3843 88.3832 49.079 88.3678C48.0324 88.3238 46.992 88.2028 45.9828 88.0065C45.4844 87.91 44.9797 87.7915 44.4876 87.6545C44.011 87.5268 43.522 87.3742 43.0329 87.1967C42.0953 86.8605 41.164 86.4462 40.2731 85.9635C39.4009 85.49 38.5412 84.9449 37.7251 84.3406C37.0647 83.8516 36.4168 83.3127 35.8031 82.7427C35.0649 82.0573 34.3454 81.2942 33.6632 80.4843C32.9904 79.6838 32.3456 78.8178 31.7475 77.9114C31.1464 77.0081 30.5794 76.0424 30.0561 75.0456C29.5358 74.0488 29.0407 72.9898 28.5921 71.8996C28.1466 70.8187 27.7323 69.6724 27.3554 68.4856C26.9847 67.3205 26.6453 66.0871 26.3461 64.8162C26.0502 63.5484 25.7916 62.2339 25.5768 60.9069C25.3837 59.7326 25.2217 58.5147 25.094 57.278C25.0563 56.9043 24.5177 56.8545 24.4087 57.2192C23.9414 58.8327 23.5178 60.3964 23.144 61.8916C22.6737 63.7668 22.2406 65.4737 21.8482 67.0063C21.4651 68.5077 21.1941 69.7163 21.0383 70.5978C20.7268 72.1615 19.6895 73.1489 18.0261 73.4698C16.5964 73.7501 15.0607 73.6318 13.4783 73.1272C11.9146 72.6257 10.4942 71.7566 9.25137 70.5387C7.94933 69.2616 7.28897 67.6574 7.28897 65.7666C7.28897 64.2278 7.68148 61.7951 8.4851 58.3344C9.27001 54.9547 10.4008 50.9489 11.8523 46.4229C13.2915 41.9342 15.0389 36.9846 17.0418 31.7203C18.7613 27.1974 20.6925 22.6434 22.7858 18.1517C23.4711 16.6814 24.8884 15.6691 26.5237 15.4822C30.2211 15.0586 33.4295 15.1644 36.1489 15.7937C37.7873 16.1737 38.6657 17.9274 37.9804 19.4382C36.2267 23.2945 34.6101 27.1414 33.1647 30.8856C31.9966 33.9164 30.8753 36.9161 29.8162 39.8348C29.7138 40.1245 30.0124 40.3924 30.2928 40.2646C31.7038 39.626 33.0962 38.8722 34.4574 38.0125C36.6877 36.6014 38.7187 34.9163 40.4973 33.0068C42.2666 31.0973 43.7181 28.9449 44.8115 26.6056C45.8893 24.2881 46.4375 21.7712 46.4375 19.1173C46.4375 15.7064 45.4781 13.1865 43.5873 11.6321C41.6716 10.0591 38.9741 9.25852 35.5664 9.25852C31.9375 9.25852 28.62 10.1058 25.7076 11.7785C22.7172 13.4917 20.1318 15.5974 18.023 18.0395C15.8986 20.5003 14.2228 23.1293 13.0485 25.8549C11.8835 28.5556 11.2916 30.9229 11.2916 32.8947C11.2916 34.3057 10.5348 35.3243 9.16103 35.7635C7.95555 36.1498 6.62548 36.0938 5.26113 35.5922C3.94973 35.1125 2.73491 34.1625 1.6478 32.7732C0.554438 31.3777 0 29.4869 0 27.1539C0 25.1167 0.784909 22.7182 2.3985 19.8213C3.96843 16.996 6.29217 14.2456 9.29809 11.6446C12.3009 9.04984 16.0887 6.79774 20.5679 4.9537C25.0721 3.09719 30.2772 2.15554 36.0367 2.15554ZM214.731 0C219.756 0 223.827 4.01827 223.827 8.97102C223.827 13.9238 219.756 17.942 214.731 17.942C209.707 17.942 205.636 13.9238 205.636 8.97102C205.636 4.01827 209.707 0 214.731 0Z" fill="black"/>
</svg>
