<svg width="128" height="26" viewBox="0 0 128 26" fill="none" xmlns="http://www.w3.org/2000/svg">
<g clip-path="url(#clip0_1599_9225)">
<path d="M127.635 6.39551H124.962V16.1624L117.235 6.39551H114.064V19.5436H116.738V9.77679L124.463 19.5436H127.635V6.39551ZM101.661 6.39551H98.7107L92.3678 19.5423H95.3181L96.1114 17.8526C96.4426 17.1391 96.9595 16.819 97.7343 16.819H102.529L101.957 15.5795C101.607 14.809 101.035 14.4529 100.187 14.4529H97.7355L100.187 9.26927L105.055 19.5425H108.006L101.661 6.39551ZM86.3172 6.39551H83.5507V19.5423H86.3172V6.39551ZM77.4504 6.39551H74.5001L69.8165 16.5758L65.1322 6.39551H62.1821L68.341 19.5436H71.2913L77.4504 6.39551ZM56.1314 6.39551H53.3649V19.5423H56.1314V6.39551ZM46.186 10.7728C46.186 8.55694 44.7108 6.39687 41.5387 6.39687H33.333V19.5437H36.0995V8.76286H41.1342C42.6837 8.76286 43.4206 9.53337 43.4206 10.7728C43.4206 12.0309 42.6824 12.8014 41.1342 12.8014H38.9925C38.0221 12.8014 37.4768 13.3567 37.4768 14.3451V15.1688H39.0133C39.732 15.1688 40.2668 15.4132 40.7103 15.9951L43.4389 19.5448H46.8314L43.0333 14.6241C45.0615 14.1525 46.186 12.8001 46.186 10.7728Z" fill="black"/>
<path d="M14.1051 15.7662C14.7677 15.1498 15.935 13.9967 16.3694 13.4799C16.5676 13.2514 16.5546 12.9658 16.5546 12.9658C16.5546 12.9658 16.5676 12.6801 16.3694 12.4517C15.935 11.9349 14.7677 10.7818 14.1051 10.1654C13.8338 9.90765 13.7686 9.7456 13.7686 9.42938V5.93421C13.7686 5.76815 13.9238 5.69509 14.0555 5.81199C15.5333 7.20559 18.8254 10.5281 19.9288 11.8154C20.4558 12.3853 20.4075 12.9659 20.4075 12.9659C20.4075 12.9659 20.4558 13.5451 19.9288 14.1163C18.8241 15.4036 15.532 18.7261 14.0555 20.1197C13.9238 20.2366 13.7686 20.1635 13.7686 19.9975V16.5022C13.7699 16.1847 13.8338 16.0239 14.1051 15.7662ZM12.1616 15.7635C11.4991 15.1471 10.3317 13.994 9.89736 13.4772C9.69908 13.2488 9.7121 12.9631 9.7121 12.9631C9.7121 12.9631 9.69908 12.6775 9.89736 12.449C10.3317 11.9322 11.4991 10.7791 12.1616 10.1627C12.4329 9.90498 12.4981 9.74287 12.4981 9.42671V5.92089C12.4981 5.78007 12.3364 5.69239 12.2112 5.81062C10.7334 7.20422 7.44133 10.5267 6.33785 11.814C5.80961 12.3839 5.85917 12.9645 5.85917 12.9645C5.85917 12.9645 5.81091 13.5437 6.33785 14.1149C7.4426 15.4022 10.7347 18.7248 12.2112 20.1183C12.3429 20.2352 12.4981 20.1622 12.4981 19.9961V16.5009C12.4981 16.182 12.4329 16.02 12.1616 15.7635ZM0.0508971 13.9767C1.53651 15.5377 9.5738 23.9815 11.0799 25.1995C11.6056 25.6287 12.2825 25.9435 13.1316 25.9435C13.982 25.9435 14.6589 25.6287 15.1833 25.1995C16.6898 23.9814 24.7267 15.5373 26.2123 13.9767C26.3336 13.8345 26.224 13.6114 26.0414 13.6114C25.2993 13.6114 23.5789 13.6087 22.542 13.6087C22.1768 13.6087 22.0685 13.6738 21.8389 13.9249C21.6093 14.176 20.4668 15.4248 20.4668 15.4248C19.0137 17.0202 15.4699 20.5434 14.1748 21.6539C13.6883 22.0711 13.1378 22.0578 13.13 22.0578C13.1221 22.0578 12.5717 22.0711 12.0852 21.6539C10.79 20.542 7.24624 17.0189 5.79317 15.4248C5.79317 15.4248 4.65057 14.176 4.42102 13.9249C4.19147 13.6738 4.0832 13.6087 3.718 13.6087C2.68236 13.6087 0.960685 13.6114 0.218483 13.6114C0.0384845 13.6114 -0.0710781 13.8345 0.050227 13.9767H0.0508971ZM26.2143 11.9668C24.7287 10.4058 16.6914 1.96202 15.1853 0.743922C14.6596 0.31482 13.9827 0 13.1336 0C12.2832 0 11.6063 0.314846 11.0819 0.743922C9.5754 1.96215 1.53671 10.4061 0.0510247 11.9668C-0.070274 12.1089 0.039286 12.3321 0.221891 12.3321C0.964029 12.3321 2.68443 12.3347 3.72141 12.3347C4.08662 12.3347 4.19487 12.2697 4.42443 12.0186C4.65399 11.7675 5.79658 10.5187 5.79658 10.5187C7.24958 8.92322 10.7935 5.40011 12.0886 4.28953C12.5751 3.87238 13.1255 3.88567 13.1334 3.88567C13.1412 3.88567 13.6916 3.87238 14.1782 4.28953C15.4733 5.40148 19.0172 8.92453 20.4702 10.5187C20.4702 10.5187 21.6128 11.7675 21.8423 12.0186C22.0719 12.2697 22.1802 12.3347 22.5453 12.3347C23.581 12.3347 25.3027 12.3321 26.0448 12.3321C26.2274 12.3334 26.3356 12.1089 26.2143 11.9668Z" fill="black"/>
</g>
<defs>
<clipPath id="clip0_1599_9225">
<rect width="127.636" height="25.9999" fill="white"/>
</clipPath>
</defs>
</svg>
