<svg xmlns="http://www.w3.org/2000/svg" width="85" height="23" viewBox="0 0 85 23" fill="none">
<g clip-path="url(#clip0_1599_9280)">
<path d="M8.32375 16.1128C8.2456 16.1128 8.16745 16.1128 8.0893 16.1128C7.44455 16.1317 6.81934 16.2263 6.19413 16.3776C5.17817 16.6424 4.20128 17.1152 3.36116 17.7205C3.28301 17.7015 3.18532 17.6826 3.10717 17.6448C2.77503 17.5502 2.48196 17.3989 2.18889 17.2287C1.64184 16.3208 1.21201 15.3184 0.938477 14.2781C3.3807 13.5027 6.27228 14.0512 8.0893 15.848C8.0893 15.848 8.0893 15.848 8.0893 15.8669C8.16745 15.9425 8.2456 16.0371 8.32375 16.1128Z" fill="#aaaaaa"/>
<path d="M23.661 13.9568C23.4851 14.6945 23.2507 15.4132 22.9381 16.0941C22.3519 15.6024 21.7072 15.2052 21.1992 14.6567C21.2578 14.6188 21.3164 14.581 21.3751 14.5432C21.4532 14.4864 21.5314 14.4486 21.6095 14.4108C22.2152 14.0703 22.9381 13.919 23.661 13.9568Z" fill="#aaaaaa"/>
<path d="M21.1986 14.6765C20.5343 15.1683 20.0459 15.8492 19.5184 16.4733C18.8541 17.2677 18.0921 18.0054 17.2715 18.6484C17.0957 18.7808 16.9003 18.9321 16.7245 19.0456C16.6463 19.1024 16.5486 19.1591 16.4509 19.2158C15.6304 18.951 14.8488 18.6106 14.1455 18.1567C13.6766 17.873 13.2468 17.5703 12.7778 17.2866C11.5274 16.5679 10.0816 16.1707 8.6163 16.1329C8.53815 16.1329 8.44046 16.1329 8.34277 16.1329C8.42092 16.0572 8.51861 15.9626 8.6163 15.887C9.71042 14.5252 11.6642 11.7448 12.8365 10.4398C14.3409 8.77536 16.6268 8.68079 17.8772 9.9102C18.6782 10.7046 19.3425 11.6125 19.8701 12.5771C20.2413 13.239 20.5734 13.9199 21.0423 14.5063C21.0814 14.563 21.14 14.6198 21.1986 14.6765Z" fill="#aaaaaa"/>
<path d="M22.9367 16.0957C22.3506 17.3818 21.53 18.5356 20.5141 19.5191C20.4164 19.6136 20.3382 19.6893 20.221 19.7839C19.0292 19.8028 17.8374 19.6326 16.6847 19.2921C16.6065 19.2732 16.5088 19.2354 16.4111 19.1975C16.5088 19.1597 16.587 19.103 16.6847 19.0273C16.88 18.8949 17.0559 18.7625 17.2317 18.6301C18.0523 17.9871 18.8143 17.2683 19.4786 16.455C20.0061 15.8309 20.4945 15.15 21.1588 14.6582C21.7059 15.2256 22.3506 15.6228 22.9367 16.0957Z" fill="#cccccc"/>
<path d="M3.34221 17.7233C3.264 17.78 3.16622 17.8368 3.08801 17.9126C2.99023 17.9883 2.89246 18.064 2.79469 18.1586C2.75558 18.1019 2.71647 18.0451 2.67736 18.0072L2.16895 17.25C2.44271 17.4204 2.75558 17.5718 3.08801 17.6665C3.16622 17.6854 3.264 17.7233 3.34221 17.7233Z" fill="#cccccc"/>
<path d="M16.4314 19.1969C16.2751 19.2914 16.1188 19.3671 15.9625 19.4238C15.3178 19.6697 14.6144 19.7075 13.9501 19.6319C12.348 19.4617 10.8045 18.7429 9.67134 17.627C9.20243 17.1542 8.79214 16.6057 8.34277 16.1328C8.42092 16.1328 8.51861 16.1328 8.6163 16.1328C10.0816 16.1706 11.5274 16.5678 12.7778 17.2866C13.2468 17.5703 13.6766 17.8729 14.1455 18.1566C14.8293 18.5916 15.6108 18.951 16.4314 19.1969Z" fill="#cccccc"/>
<path d="M8.32392 16.1143C7.6401 16.7384 6.87813 17.268 5.97939 17.5895C5.13927 17.8922 4.20146 17.93 3.3418 17.7219C4.18192 17.1167 5.15881 16.6438 6.17477 16.3791C6.79998 16.2277 7.42519 16.1332 8.06993 16.1143C8.16762 16.1143 8.24577 16.1143 8.32392 16.1143Z" fill="#cccccc"/>
<path d="M20.2421 19.7826C18.1516 21.6929 15.3382 22.8466 12.2707 22.8466C8.38271 22.8466 4.92453 20.9931 2.81445 18.156C2.91214 18.0803 3.00983 17.9858 3.10752 17.9101C3.18567 17.8344 3.28336 17.7777 3.36151 17.721C4.22117 17.929 5.17852 17.8723 5.99911 17.5886C6.87831 17.267 7.65982 16.7374 8.34364 16.1133C8.79301 16.605 9.2033 17.1346 9.6722 17.6075C10.8054 18.7234 12.3489 19.461 13.951 19.6124C14.6348 19.688 15.3382 19.6502 15.9634 19.4043C16.1197 19.3476 16.276 19.2719 16.4323 19.1773C16.53 19.2152 16.6081 19.2341 16.7058 19.2719C17.839 19.6313 19.0503 19.8015 20.2421 19.7826Z" fill="white"/>
<path d="M24.13 11.4977H22.4888C22.4888 6.03159 17.8974 1.58682 12.251 1.58682C6.60461 1.58682 2.03277 6.03159 2.03277 11.4977H0.391602C0.391602 5.16155 5.72541 -0.00195312 12.2706 -0.00195312C18.8157 -0.00195312 24.13 5.16155 24.13 11.4977Z" fill="white"/>
<path d="M34.4646 19.3848V6.71247H29.3262V4.5752H42.0452V6.71247H36.8873V19.3848H34.4646Z" fill="white"/>
<path d="M64.7097 19.386H62.3066V12.3879C62.3066 10.5721 61.2711 9.68317 59.2001 9.68317C57.1095 9.68317 56.074 10.5721 56.074 12.3879V19.386H53.6709V12.2744C53.6709 9.30489 55.5074 7.5459 59.2001 7.5459C62.8927 7.5459 64.7097 9.32381 64.7097 12.2744V19.386Z" fill="white"/>
<path d="M76.5297 19.385H66.5459V17.7584C66.5459 17.7584 72.5635 10.2874 72.8957 9.87129H66.7022V7.75293H76.3734V9.2093C76.3734 9.2093 71.02 15.8292 69.9455 17.2666H76.5297V19.385Z" fill="white"/>
<path d="M84.5792 7.56481C84.3643 7.5459 84.1299 7.5459 83.8954 7.5459C80.2028 7.5459 78.3662 9.32381 78.3662 12.2744V19.386H80.7694V12.3879C80.7694 10.5721 81.8049 9.68317 83.8954 9.68317C84.1299 9.68317 84.3643 9.70208 84.5792 9.721V7.56481Z" fill="white"/>
<path d="M49.332 16.3976C48.9217 17.1163 47.9253 17.4757 46.3232 17.4757C44.1154 17.4757 43.0213 16.5868 43.0213 14.7899V14.3738H51.8523V12.2176C51.8523 9.32381 49.9376 7.5459 46.3036 7.5459C42.6305 7.5459 40.7158 9.32381 40.7158 12.2176V14.9412C40.7158 17.8351 42.5719 19.5941 46.3427 19.5941C48.824 19.5941 50.5042 18.8375 51.3053 17.6648L49.332 16.3976ZM43.0017 12.35C43.0017 10.5343 44.0959 9.62643 46.2841 9.62643C48.4528 9.62643 49.5273 10.5154 49.5273 12.3311V12.4824H43.0017V12.35Z" fill="white"/>
</g>
<defs>
<clipPath id="clip0_1599_9280">
<rect width="84.1882" height="22.848" fill="white" transform="translate(0.392578)"/>
</clipPath>
</defs>
</svg>