<svg width="293" height="169" viewBox="0 0 293 169" fill="none" xmlns="http://www.w3.org/2000/svg">
<path d="M92.1323 5.90625H8.70312V162.88H92.1323V5.90625Z" fill="black"/>
<path fill-rule="evenodd" clip-rule="evenodd" d="M37.5677 35.9562L43.1033 29.2344C81.1029 35.066 78.6937 44.617 51.4066 49.3997C60.5506 52.6149 92.9595 58.5739 53.779 70.3559C60.1551 72.0884 96.1108 80.9885 51.4066 88.9396C58.4897 92.1378 96.0704 96.7255 52.9882 108.314C64.1436 110.147 92.8098 116.257 54.9652 128.479C69.2728 129.976 70.891 130.472 74.7352 137.178L75.1306 164.065L6.72656 165.252L7.91276 124.13L9.49435 124.526C81.9734 117.836 60.7013 115.419 7.91276 112.268L8.30815 104.36C103.563 98.715 32.9983 95.7882 8.70356 92.1028V85.7764C26.5085 82.2744 107.78 80.8533 8.70356 73.519V65.6111C64.542 62.6081 83.2872 58.715 7.91276 52.5629L7.51736 45.4457C68.0579 43.444 68.5509 40.0619 37.5677 35.9562Z" fill="white"/>
<path d="M125.347 46.6328H103.205V49.0052H125.347V46.6328Z" fill="black"/>
<path d="M114.819 47.8926H112.232V74.5227H114.819V47.8926Z" fill="black"/>
<path d="M131.71 46.3711H129.275V74.6752H131.71V46.3711Z" fill="black"/>
<path d="M151.34 59.6094H130.949V61.5876H151.34V59.6094Z" fill="black"/>
<path d="M151.341 46.5234H149.211V75.1319H151.341V46.5234Z" fill="black"/>
<path d="M177.476 46.4023H158.682V48.7747H177.476V46.4023Z" fill="black"/>
<path d="M177.019 59.3359H158.225V61.7083H177.019V59.3359Z" fill="black"/>
<path d="M178.39 72.5742H159.596V74.9466H178.39V72.5742Z" fill="black"/>
<path d="M160.47 46.5234H158.34V75.1319H160.47V46.5234Z" fill="black"/>
<path fill-rule="evenodd" clip-rule="evenodd" d="M106.764 160.53L119.615 133.826L132.374 160.257V160.166L119.615 134.1L106.764 160.53Z" stroke="black" stroke-width="1.68388"/>
<path d="M110.227 152.055L127.908 152.419" stroke="black" stroke-width="1.68388"/>
<path fill-rule="evenodd" clip-rule="evenodd" d="M134.105 133.279L144.313 159.801L153.063 133.735L162.086 159.619L171.564 133.279L162.177 159.71L152.972 133.644L144.222 159.892L134.105 133.279Z" stroke="black" stroke-width="1.68388"/>
<path fill-rule="evenodd" clip-rule="evenodd" d="M173.982 160.486L186.833 133.781L199.593 160.212V160.121L186.833 134.055L173.982 160.486Z" stroke="black" stroke-width="1.68388"/>
<path d="M177.445 152.008L195.127 152.372" stroke="black" stroke-width="1.68388"/>
<path d="M205.196 160.622L205.014 133.279" stroke="black" stroke-width="1.68388"/>
<path fill-rule="evenodd" clip-rule="evenodd" d="M204.832 133.552H219.323C226.126 135.421 226.838 146.278 217.592 148.59L205.379 148.773L217.592 148.682C228.674 146.693 224.022 133.426 219.232 133.461L204.832 133.552Z" stroke="black" stroke-width="1.68388"/>
<path d="M216.498 149.047L225.43 160.439" stroke="black" stroke-width="1.68388"/>
<path fill-rule="evenodd" clip-rule="evenodd" d="M232.812 133.735V160.439C243.505 159.753 256.5 161.923 255.598 146.859C253.408 131.167 242.44 133.855 232.812 133.735Z" stroke="black" stroke-width="1.68388"/>
<path fill-rule="evenodd" clip-rule="evenodd" d="M277.927 135.65C275.561 131.941 262.389 130.201 262.159 141.209C261.973 145.75 279.802 146.488 279.932 153.513C276.658 164.116 264.396 159.355 261.521 155.974C265.449 161.111 279.405 162.236 280.023 153.513C277.92 144.477 262.263 147.668 261.977 141.118C262.018 130.475 273.18 131.819 277.927 135.65Z" stroke="black" stroke-width="1.68388"/>
<path d="M116.421 88.2969H107.309L115.328 121.832H124.441L116.421 88.2969Z" fill="black"/>
<path d="M153.777 87.9316H144.664L135.187 121.467H144.3L153.777 87.9316Z" fill="black"/>
<path d="M134.327 87.7578H126.959L133.443 121.293H140.81L134.327 87.7578Z" fill="black"/>
<path d="M133.256 88.0449H125.889L119.25 121.58H126.618L133.256 88.0449Z" fill="black"/>
<path d="M210.084 87.9316H200.606C195.674 87.9316 191.676 91.93 191.676 96.8621C191.676 101.794 195.674 105.793 200.606 105.793H210.084C215.016 105.793 219.014 101.794 219.014 96.8621C219.014 91.93 215.016 87.9316 210.084 87.9316Z" fill="black"/>
<path d="M206 93.7637H197.252C195.037 93.7637 193.242 95.5588 193.242 97.7733C193.242 99.9877 195.037 101.783 197.252 101.783H206C208.214 101.783 210.01 99.9877 210.01 97.7733C210.01 95.5588 208.214 93.7637 206 93.7637Z" fill="white"/>
<path d="M210.266 103.424H201.518C196.384 103.424 192.223 107.585 192.223 112.719C192.223 117.852 196.384 122.014 201.518 122.014H210.266C215.399 122.014 219.561 117.852 219.561 112.719C219.561 107.585 215.399 103.424 210.266 103.424Z" fill="black"/>
<path d="M207.713 107.348H198.965C196.75 107.348 194.955 109.143 194.955 111.357C194.955 113.572 196.75 115.367 198.965 115.367H207.713C209.927 115.367 211.723 113.572 211.723 111.357C211.723 109.143 209.927 107.348 207.713 107.348Z" fill="white"/>
<path d="M199.694 88.2969H191.311V121.832H199.694V88.2969Z" fill="black"/>
<path d="M243.488 88.2266H234.011C229.078 88.2266 225.08 92.2249 225.08 97.157C225.08 102.089 229.078 106.088 234.011 106.088H243.488C248.42 106.088 252.418 102.089 252.418 97.157C252.418 92.2249 248.42 88.2266 243.488 88.2266Z" fill="black"/>
<path d="M239.404 94.0586H230.656C228.442 94.0586 226.646 95.8538 226.646 98.0682C226.646 100.283 228.442 102.078 230.656 102.078H239.404C241.619 102.078 243.414 100.283 243.414 98.0682C243.414 95.8538 241.619 94.0586 239.404 94.0586Z" fill="white"/>
<path d="M243.668 103.719H234.92C229.787 103.719 225.625 107.88 225.625 113.014C225.625 118.147 229.787 122.309 234.92 122.309H243.668C248.802 122.309 252.963 118.147 252.963 113.014C252.963 107.88 248.802 103.719 243.668 103.719Z" fill="black"/>
<path d="M241.117 107.643H232.369C230.155 107.643 228.359 109.438 228.359 111.652C228.359 113.867 230.155 115.662 232.369 115.662H241.117C243.332 115.662 245.127 113.867 245.127 111.652C245.127 109.438 243.332 107.643 241.117 107.643Z" fill="white"/>
<path d="M233.099 88.5918H224.715V122.127H233.099V88.5918Z" fill="black"/>
<path d="M260.91 87.9316H252.498L264.499 105.793H272.911L260.91 87.9316Z" fill="black"/>
<path d="M285.017 88.4785H276.605L264.549 106.339H272.96L285.017 88.4785Z" fill="black"/>
<path d="M272.961 105.064H265.307V121.467H272.961V105.064Z" fill="black"/>
<path d="M187.665 103.788C187.666 106.11 187.228 108.41 186.376 110.555C185.524 112.7 184.276 114.65 182.702 116.292C181.128 117.934 179.259 119.236 177.203 120.125C175.146 121.014 172.942 121.471 170.715 121.471C168.489 121.471 166.285 121.014 164.228 120.125C162.171 119.236 160.303 117.934 158.729 116.292C157.155 114.65 155.906 112.7 155.055 110.555C154.203 108.41 153.765 106.11 153.766 103.788C153.765 101.466 154.203 99.167 155.055 97.0217C155.906 94.8763 157.155 92.927 158.729 91.2849C160.303 89.6428 162.171 88.3403 164.228 87.4516C166.285 86.5629 168.489 86.1055 170.715 86.1055C172.942 86.1055 175.146 86.5629 177.203 87.4516C179.259 88.3403 181.128 89.6428 182.702 91.2849C184.276 92.927 185.524 94.8763 186.376 97.0217C187.228 99.167 187.666 101.466 187.665 103.788Z" fill="black"/>
<path d="M189.124 103.605H163.244V110.167H189.124V103.605Z" fill="white"/>
<path d="M180.132 103.788C180.132 105.05 179.889 106.299 179.416 107.465C178.943 108.631 178.249 109.691 177.375 110.583C176.5 111.476 175.462 112.184 174.319 112.667C173.177 113.15 171.952 113.398 170.715 113.398C169.479 113.398 168.254 113.15 167.111 112.667C165.969 112.184 164.931 111.476 164.056 110.583C163.182 109.691 162.488 108.631 162.015 107.465C161.542 106.299 161.299 105.05 161.299 103.788C161.299 102.526 161.542 101.276 162.015 100.11C162.488 98.9445 163.182 97.8851 164.056 96.9926C164.931 96.1002 165.969 95.3923 167.111 94.9093C168.254 94.4263 169.479 94.1777 170.715 94.1777C171.952 94.1777 173.177 94.4263 174.319 94.9093C175.462 95.3923 176.5 96.1002 177.375 96.9926C178.249 97.8851 178.943 98.9445 179.416 100.11C179.889 101.276 180.132 102.526 180.132 103.788Z" fill="white"/>
<path d="M187.665 100.33H156.025V105.326H187.665V100.33Z" fill="black"/>
</svg>
